<?xml version="1.0" encoding="UTF-8"?>
<svg id="Layer_1" xmlns="http://www.w3.org/2000/svg" viewBox="0 0 833.71 714.13">
  <path d="M793.91,379.6c-26.55-28.61-61.87-47.56-105.99-56.83v-3.84c30.69-12.79,54.75-32.77,72.18-59.95,17.42-27.17,26.14-58.19,26.14-93.04,0-30.05-6.32-56.59-18.95-79.61-12.63-23.02-31.73-41.4-57.31-55.15-23.66-12.78-49-21.18-76.01-25.18-27.02-3.99-66.75-5.99-119.18-5.99h-252.27v520.62h178.41v-116.32h33.09c31.97,0,57.47.24,76.5.72,19.02.48,33.97,2.8,44.84,6.96,17.9,6.4,31.33,15.83,40.29,28.3,8.95,12.47,13.43,29.73,13.43,51.8,0,10.16-1.34,19.66-3.94,28.55-1.82,6.22-4.24,12.14-7.33,17.73-14.7,26.59-45.83,38.39-74.77,39.73-21.16.98-42.47.88-63.78.57v135.47h49.11c32.55,0,61.32-1.94,86.36-5.81,13.08-2.02,25.15-4.55,36.18-7.62,7.18-2,14.2-4.35,21.12-6.95,24.04-9.06,46.51-21.74,67.37-38.13,22.7-17.58,40.77-39.81,54.2-66.66,13.43-26.86,20.14-58.03,20.14-93.52,0-48.6-13.27-87.21-39.81-115.82ZM595.83,243.16c-5.44,11.83-15.35,21.1-29.73,27.82-13.11,6.08-25.82,9.44-38.13,10.07-12.31.65-33.81.96-64.51.96h-22.54v-151.08h12.47c31.97,0,56.03.24,72.18.72,16.14.48,30.13,3.28,41.96,8.39,12.47,5.44,21.66,14.23,27.58,26.38,5.91,12.15,8.87,23.98,8.87,35.49,0,15.67-2.72,29.42-8.16,41.25Z" style="fill: #06f;"/>
  <path d="M441.94,577.93c-.34,0-.68,0-1.03,0H179.37V0H0v714.13h441.94v-136.2Z" style="fill: #06f;"/>
</svg>