<?xml version="1.0" encoding="UTF-8"?>
<svg id="Layer_1" xmlns="http://www.w3.org/2000/svg" viewBox="0 0 309.02 69.66">
  <path d="M9.23,6.91v9.23H0V6.91h9.23ZM9.23,23.09v46.22H0V23.09h9.23Z" style="fill: #fff;"/>
  <path d="M49.13,45.13c4.93,2.63,7.39,6.18,7.39,10.64s-2.47,8.02-7.39,10.64c-4.05,2.16-8.51,3.24-13.38,3.24s-9.33-1.08-13.38-3.24c-4.96-2.62-7.43-6.17-7.43-10.63h9.23c0,1.63,1.62,2.89,4.85,3.76,2.16.58,4.4.87,6.73.87,6.15,0,9.23-1.54,9.23-4.61s-3.08-4.57-9.23-4.57c-4.87,0-9.33-1.08-13.38-3.24-4.96-2.66-7.43-6.22-7.43-10.69s2.48-8.01,7.43-10.64c4.08-2.16,8.54-3.24,13.38-3.24s9.33,1.08,13.38,3.24c4.93,2.62,7.39,6.17,7.39,10.63h-9.23c0-1.6-1.62-2.84-4.85-3.72-2.16-.58-4.39-.87-6.69-.87-6.18,0-9.27,1.52-9.27,4.57s3.09,4.61,9.27,4.61c4.87,0,9.33,1.08,13.38,3.24Z" style="fill: #fff;"/>
  <path d="M71.45,0v69.31h-9.23V0h9.23Z" style="fill: #fff;"/>
  <path d="M116.75,29.74c4.42,4.43,6.62,9.93,6.62,16.49s-2.22,12.01-6.65,16.44c-4.43,4.43-9.91,6.65-16.44,6.65s-12.02-2.22-16.46-6.65c-4.45-4.43-6.67-9.91-6.67-16.44s2.21-12.05,6.65-16.49c4.43-4.43,9.93-6.65,16.48-6.65s12.05,2.22,16.46,6.65ZM90.34,36.31c-2.64,2.63-3.96,5.95-3.96,9.93s1.33,7.26,3.98,9.89c2.65,2.64,5.96,3.95,9.93,3.95s7.27-1.32,9.91-3.95c2.64-2.63,3.96-5.93,3.96-9.89s-1.32-7.26-3.96-9.91c-2.64-2.65-5.94-3.97-9.91-3.97s-7.31,1.32-9.95,3.95Z" style="fill: #c3d200;"/>
  <path d="M168.67,29.74c4.42,4.43,6.62,9.93,6.62,16.49v23.09h-9.23v-23.09c0-3.96-1.32-7.27-3.96-9.93-2.64-2.65-5.94-3.98-9.91-3.98s-7.31,1.32-9.95,3.96c-2.64,2.64-3.96,5.96-3.96,9.95v23.09h-9.23v-23.09c0-6.56,2.21-12.05,6.65-16.49,4.43-4.43,9.93-6.65,16.48-6.65s12.05,2.22,16.46,6.65Z" style="fill: #c3d200;"/>
  <path d="M190.23,0v69.31h-9.22V0h9.22Z" style="fill: #c3d200;"/>
  <path d="M205.16,6.91v9.23h-9.23V6.91h9.23ZM205.16,23.09v46.22h-9.23V23.09h9.23Z" style="fill: #c3d200;"/>
  <path d="M250.46,29.74c4.42,4.43,6.63,9.93,6.63,16.49v23.09h-9.23v-23.09c0-3.96-1.32-7.27-3.96-9.93-2.64-2.65-5.94-3.98-9.9-3.98s-7.31,1.32-9.95,3.96c-2.64,2.64-3.96,5.96-3.96,9.95v23.09h-9.23v-23.09c0-6.56,2.22-12.05,6.65-16.49,4.43-4.43,9.93-6.65,16.49-6.65s12.05,2.22,16.46,6.65Z" style="fill: #c3d200;"/>
  <path d="M286,60.16h-.07c-3.96,0-7.28-1.38-9.93-4.01-1.52-1.51-2.61-3.25-3.26-5.2h35.86c.28-1.51.42-3.08.42-4.72,0-6.56-2.21-12.06-6.63-16.49-4.42-4.43-9.91-6.65-16.47-6.65s-12.06,2.22-16.49,6.65c-4.43,4.43-6.65,9.93-6.65,16.49s2.22,12.02,6.67,16.45c4.45,4.43,9.94,6.63,16.47,6.63.33,0,.65.01.97,0h21.82v-9.14h0s-22.72,0-22.72,0ZM285.93,32.36c3.97,0,7.27,1.33,9.91,3.97,1.62,1.62,2.74,3.5,3.36,5.61h-26.59c.63-2.13,1.75-4.01,3.37-5.63,2.64-2.64,5.96-3.95,9.95-3.95Z" style="fill: #c3d200;"/>
</svg>