<?xml version="1.0" encoding="UTF-8"?>
<svg id="Calque_1" xmlns="http://www.w3.org/2000/svg" viewBox="0 0 332.61 332.23">
  <g id="Layer_1">
    <path d="M308.61,23.62C293.37,7.62,272.03,0,251.46,0s-41.15,7.62-57.15,23.62c-16,16-24.38,38.1-23.62,59.44h0v76.96c0,.76.76,2.29,2.29,2.29h78.49c20.57,0,41.15-7.62,57.15-23.62,32-32,32-83.06,0-115.06ZM288.04,117.35c-9.91,9.91-22.1,15.24-35.81,15.24h-51.05v-51.05h0c0-13.72,5.33-26.67,15.24-35.81,9.91-9.91,22.1-15.24,35.81-15.24h0c13.72,0,26.67,5.33,35.81,15.24,9.91,9.91,15.24,22.1,15.24,35.81-.76,12.95-6.1,25.91-15.24,35.81Z" vector-effect="non-scaling-stroke" style="fill: #6bc78a;"/>
  </g>
  <g id="Layer_1-2" data-name="Layer_1">
    <path d="M138.68,140.97h0c.76,0,2.29-.76,2.29-2.29h0v-25.91h0c0-.76-.76-2.29-2.29-2.29h0c-43.43.76-78.49,36.58-78.49,80.77s36.58,80.77,80.77,80.77,80.01-35.05,80.77-79.25c0-.76-.76-2.29-2.29-2.29h-25.91c-.76,0-2.29.76-2.29,2.29h0c-.76,27.43-23.62,48.77-51.05,48.77s-51.05-22.86-51.05-51.05c.76-25.91,22.1-48.77,49.53-49.53Z" vector-effect="non-scaling-stroke" style="fill: #6bc78a;"/>
  </g>
  <g id="Layer_1-3" data-name="Layer_1">
    <path d="M281.18,193.55h0c0-.76-.76-1.52-2.29-1.52h-25.91c-.76,0-1.52.76-2.29,1.52h0c-.76,60.2-50.29,108.97-110.49,108.97S29.72,252.98,29.72,192.02s48.77-109.73,108.97-110.49h0c.76,0,2.29-.76,2.29-2.29h0v-25.91h0c0-.76-.76-2.29-2.29-2.29h0C61.72,52.58,0,115.06,0,192.02s63.25,140.21,140.21,140.21,139.45-61.72,140.97-138.68q0,.76,0,0c0,.76,0,0,0,0Z" vector-effect="non-scaling-stroke" style="fill: #6bc78a;"/>
  </g>
</svg>