<?xml version="1.0" encoding="UTF-8"?>
<svg id="Layer_2" xmlns="http://www.w3.org/2000/svg" viewBox="0 0 97.17 97.17">
  <g id="IT_Glue">
    <g>
      <path d="M95.29,85.12L52.13,18.68h-18.05l41.3,64.38H12.76v-43.89L0,19.42v70.7c0,1.86.68,3.67,1.86,4.98,1.19,1.32,2.83,2.07,4.51,2.07h84.4c2.58,0,4.9-1.72,5.9-4.35.98-2.64.44-5.68-1.39-7.69h0Z" style="fill: #1d1d1b;"/>
      <path d="M1.87,12.04l43.16,66.45h18.05L21.78,14.11h62.62v43.89l12.77,19.75V7.05c0-1.85-.68-3.67-1.87-4.98-1.19-1.32-2.84-2.07-4.51-2.07H6.38C3.81,0,1.48,1.72.48,4.35c-.98,2.64-.43,5.68,1.39,7.69Z" style="fill: #1d1d1b;"/>
    </g>
  </g>
</svg>