<?xml version="1.0" encoding="UTF-8"?>
<svg id="Calque_1" xmlns="http://www.w3.org/2000/svg" viewBox="0 0 37.28 40.08">
  <g id="Group_1">
    <path id="Path_1" d="M14.19,28.13l-9.08-5.35s-4.75,1.8-5.11,1.91c4.31,1.78,8.52,3.8,12.61,6.05,2.17,1.29,4.26,2.73,6.25,4.29-.23-1.28-.67-2.5-1.32-3.63-.84-1.34-1.99-2.46-3.35-3.27" style="fill: #0b1a65;"/>
    <path id="Path_2" d="M10.6,8.99c.09.22.2.43.31.64.95,1.72,3.06,3.77,7.76,4.51l.66.1-.04.26h0s-.48,3.25-.48,3.25c2.13-.49,3.63-2.38,3.63-4.56.08-2.48-1.8-4.59-4.27-4.78-.12-.02-.26-.03-.41-.05-1.31-.15-3.52-.39-4.6-1.63-1.42-1.63-1.15-4.56-.77-6.47-2,3.38-2.44,5.97-2.01,7.96.06.26.13.52.22.77" style="fill: #0b1a65;"/>
    <path id="Path_3" d="M17.81,15.36c-2.7-.38-5.19-1.66-7.06-3.65l-4.81,9.93,10.07,5.84,1.8-12.12Z" style="fill: #0b1a65;"/>
    <path id="Path_4" d="M14.4,6.04v.02c.06.03.1.06.14.09.33.2.68.36,1.05.46.07.02.15.04.22.06.69.17,1.4.28,2.11.35.16.02.3.03.43.05,2.55.23,4.66,2.06,5.26,4.54l8.72-3.74,1.79,3.19-.6-9.71c-.62,1.11-1.81,1.79-3.09,1.76,1.68-.73,1.65-1.15,1.65-1.15-1.65-1.41-5.35-1.97-7.64-1.97-9.94,0-12.01,4.33-10.03,6.04" style="fill: #0b1a65;"/>
    <path id="Path_5" d="M34.67,22.48c-.78,0-1.89,0-1.89,0-.32,1.71-.38,3.47-.19,5.2-.7-1.97-.93-4.08-.67-6.16.8-.27,1.64-.39,2.48-.35,0,0-1.08-1.86-1.23-2.1-1.49.1-2.94.48-4.29,1.12l-.88.4-.07-.96c0-.06-.51-5.34-4.14-6.48v.03c0,3-2.21,5.54-5.17,5.95l-1.35,9.1,5.44,3.25c-.34-6.59-.23-9.33.13-9.12s.23,6.71,1.31,9.97l6.14,3.61c-.54-3.2-.82-6.43-.84-9.67.26,3.6,1.03,7.14,2.29,10.52l5.54,3.27c-.05-.2-1.77-7.14-2.46-10.51-.47-2.31-.92-4.66-.15-7.08" style="fill: #0b1a65;"/>
    <path id="Path_6" d="M31.35,13.37h0c-.19.31-.58.42-.91.28h0s-.07-.03-.1-.05c-.21-.13-.34-.36-.34-.61h0s-1.99-.12-1.99-.12h-.28s.7-.35.7-.35l1.36-.58,2.1.5-.54.95ZM25.28,12.36c2.15,1.41,3.57,3.69,3.88,6.25,3.6-1.6,4.37-.76,5.57-.05l1.42-.9-4.41-8.07-6.46,2.77Z" style="fill: #0b1a65;"/>
  </g>
</svg>