<?xml version="1.0" encoding="UTF-8"?>
<svg id="logo-white" xmlns="http://www.w3.org/2000/svg" viewBox="0 0 206.9 214.6">
  <g id="logo_ringover">
    <path id="icon" d="M103.41,214.6c-51.97,0-92.8-34.85-102.02-85.3-.13-.6-.27-1.59-.46-2.85h51.51c.2.73.4,1.33.53,1.73,7.63,23.7,28.41,35.98,50.45,35.98s42.88-12.01,50.51-35.91c.13-.4.27-.93.53-1.73h51.44c-.2,1.06-.33,1.86-.4,2.39-9.03,50.64-49.92,85.69-102.09,85.69ZM103.41,0c54.36,0,96.51,37.77,103.09,92.27.07.8.2,1.99.4,3.52h-50.79c-.13-.86-.27-1.59-.33-1.99-5.38-28.81-28.08-43.28-52.37-43.28s-46.46,14.2-52.17,42.35c-.13.66-.33,1.66-.53,2.99H0c.2-2.19.4-3.85.53-4.98C7.62,37.11,49.51,0,103.41,0Z" style="fill: #00ddd0; fill-rule: evenodd;"/>
  </g>
</svg>