<?xml version="1.0" encoding="UTF-8"?>
<svg id="Calque_1" xmlns="http://www.w3.org/2000/svg" viewBox="0 0 40.83 40.83">
  <path d="M5.48,0h29.86c3.02,0,5.48,2.47,5.48,5.48v29.86c0,3.02-2.47,5.48-5.48,5.48H5.48c-3.02,0-5.48-2.47-5.48-5.48V5.48C0,2.47,2.47,0,5.48,0h0Z" style="fill: #da0000; fill-rule: evenodd;"/>
  <path d="M21.15,28.65h-3.55v-6.62h3.73c2.49,0,5.1.88,5.1,3.4,0,3.09-3.01,3.21-5.28,3.21h0ZM17.6,12.49h3.13c2.21,0,3.15.08,3.89.77.56.52.86,1.24.86,2.08,0,.78-.31,1.47-.89,2.01-.73.68-1.65.8-3.48.8h-3.51v-5.65h0ZM25.74,19.96v-.07c2.55-.75,4.26-2.58,4.26-5.31,0-4.39-3.92-6.02-7.65-6.02h-9.05s-3.6,0-3.6,0v.36l1.27,1.05c1.52,1.21,1.72,1.44,1.72,2.54v20.14h8.92c4.86,0,9.37-1.63,9.37-6.87,0-3.09-2.13-5.48-5.24-5.82h0Z" style="fill: #fff; fill-rule: evenodd;"/>
</svg>