<?xml version="1.0" encoding="UTF-8"?>
<svg id="Calque_1" xmlns="http://www.w3.org/2000/svg" viewBox="0 0 1519.12 442.89">
  <path d="M1404.06,442.89c-7.52,0-15.02-.76-22.39-2.26-32-6.55-59.89-26.46-76.5-54.64l-.42-.77c-8.28-16.56-2.83-36.03,12.66-45.32,5.14-3.08,11.03-4.71,17.02-4.71,12.11,0,23.35,6.6,29.32,17.22.34.6.73,1.26,1.14,1.89l3.57,4.85,4.79,4.84c5.97,5.24,13.62,8.98,21.86,10.57,13.16,2.52,27.25-.66,37.68-8.61,11.21-8.15,17.89-20.23,18.92-34.09,1.05-13.65-3.85-27.32-13.1-36.58,0,0-101.24-105.15-105.78-110.03-2.5-2.69-7.18-7.37-12.21-14.5-14.28-20.25-18.75-44.12-16.55-67.74,1.11-16.24,6.03-32.47,14.26-46.82,0,0,4.64-7.84,6-9.83,5.36-7.82,15.92-17.94,23.15-23.59,6.94-5.42,16.22-10.12,19.43-11.67,19.93-9.65,45.34-14.13,70.49-8.87,31.2,6.69,58.13,26.16,73.92,53.44,4.56,7.6,5.81,16.66,3.5,25.44-2.34,8.79-8.02,16.14-15.99,20.67-4.88,2.9-10.58,4.46-16.41,4.46-12.04,0-23.48-6.72-29.13-17.13-6.46-10.87-16.97-18.33-29.47-20.83-12.24-2.47-25.74.53-35.73,8.04-9.72,7.29-15.88,18.78-16.9,31.52-.98,12.75,3.3,24.89,12.06,34.17l103.5,106.73c22.59,23.32,34.29,55.45,32.1,88.18-2.95,33.19-19.44,63.26-45.27,82.62-20.07,15.07-44.76,23.36-69.52,23.36M1076.5,442.85c-61.39,0-111.32-49.95-111.32-111.33V111.33C965.17,49.96,1015.11.02,1076.5.02s111.32,49.94,111.32,111.32v220.19c0,61.39-49.94,111.33-111.32,111.33M1076.5,67.23c-24.33,0-44.12,19.78-44.12,44.1v220.19c0,24.73,19.37,44.11,44.12,44.11s44.11-19.79,44.11-44.11V111.33c0-23.91-20.2-44.1-44.11-44.1M643.76,227.12v182.11c0,18.84-14.76,33.59-33.6,33.59s-33.6-14.76-33.6-33.59V87.64l67.21,139.47ZM826.07,355.33V33.6c0-18.85-14.76-33.6-33.6-33.6s-33.61,14.76-33.61,33.6v182.24l67.22,139.49ZM641,19.07s-.23-.48-.31-.64c-5.71-11.21-17.91-18.22-30.42-18.22-2.31,0-4.68.24-6.77.7-15.62,3.12-26.54,16.57-26.54,32.7v7.67l184.81,383.12c6.03,11.2,17.76,18.44,29.84,18.44,2.71,0,5.39-.36,7.69-.98,15.42-3.26,26.2-16.67,26.2-32.63v-7.24S645.93,29.31,641,19.07M325.03,442.85c-29.7,0-57.64-11.6-78.68-32.65-21.05-21.06-32.64-48.99-32.64-78.68V111.33c0-29.69,11.59-57.63,32.64-78.67C267.4,11.6,295.34.02,325.03.02s57.62,11.58,78.67,32.64c21.05,21.04,32.64,48.98,32.64,78.67v220.19c0,29.69-11.59,57.62-32.64,78.68-21.04,21.05-48.98,32.65-78.67,32.65M325.03,67.23c-11.76,0-22.84,4.59-31.17,12.93-8.34,8.33-12.94,19.41-12.94,31.17v220.19c0,11.98,4.54,23.12,12.76,31.35,8.22,8.23,19.36,12.76,31.35,12.76s22.83-4.6,31.17-12.93c8.35-8.34,12.94-19.41,12.94-31.18V111.33c0-11.53-4.66-22.55-13.11-31-8.45-8.44-19.47-13.1-31-13.1M36.53,442.67c-20.49,0-36.53-16.25-36.53-36.98V36.78l.07-.72C.33,16,16.47,0,36.8,0,53.49,0,67.63,10.84,71.98,26.95c.2.61.44,1.55.63,2.6l.25,1.58c.31,1.99.47,3.96.47,5.85,0,0,.06,364.47-.02,368.65,0,20.78-16.15,37.03-36.78,37.03" style="fill: #003d8f;"/>
</svg>