<?xml version="1.0" encoding="UTF-8"?>
<svg id="Calque_1" xmlns="http://www.w3.org/2000/svg" viewBox="0 0 193.35 24">
  <path d="M121.21,17.95c0-3.4-1.83-5.02-6.91-6.13-2.83-.61-3.51-1.25-3.51-2.15,0-1.11,1-1.61,2.87-1.61,2.26,0,4.48.68,6.59,1.65v-4.48c-1.47-.75-3.76-1.33-6.45-1.33-5.05,0-7.67,2.19-7.67,5.8,0,2.87,1.33,5.16,6.56,6.16,3.12.64,3.76,1.15,3.76,2.18s-.64,1.65-2.87,1.65c-2.54,0-5.59-.86-7.56-2.04v4.69c1.58.79,3.65,1.65,7.52,1.65,5.52,0,7.67-2.44,7.67-6.05Z"/>
  <path d="M176.34,4.19v19.52h4.16v-14.9l1.75,3.98,5.87,10.93h5.23V4.19h-4.15v12.61l-1.58-3.65-4.73-8.96h-6.56Z"/>
  <path d="M149.9,4.19h-4.55v19.49h4.55V4.19Z"/>
  <path d="M140.12,17.95c0-3.4-1.83-5.02-6.91-6.13-2.83-.61-3.51-1.25-3.51-2.15,0-1.11,1-1.61,2.87-1.61,2.26,0,4.48.68,6.59,1.65v-4.48c-1.47-.75-3.76-1.33-6.45-1.33-5.05,0-7.67,2.19-7.67,5.8,0,2.87,1.32,5.16,6.56,6.16,3.12.64,3.76,1.15,3.76,2.18s-.64,1.65-2.86,1.65c-2.54,0-5.59-.86-7.56-2.04v4.69c1.58.79,3.65,1.65,7.52,1.65,5.52,0,7.67-2.44,7.67-6.05Z"/>
  <path d="M70.88,4.19v19.52h9.35l1.47-4.23h-6.23V4.19h-4.59Z"/>
  <path d="M52.47,4.19v4.23h5.01v15.3h4.59v-15.3h5.41v-4.23h-15.01Z"/>
  <path d="M45.84,4.19h-5.98l-6.81,19.49h5.19l.97-3.3c1.15.32,2.36.54,3.65.54s2.47-.18,3.65-.54l.97,3.3h5.19l-6.84-19.49ZM42.83,16.91c-.86,0-1.72-.14-2.51-.36l2.51-8.53,2.51,8.53c-.79.21-1.65.36-2.51.36Z"/>
  <path d="M96.31,4.19h-5.98l-6.81,19.49h5.19l.97-3.3c1.15.32,2.36.54,3.65.54s2.47-.18,3.65-.54l.97,3.3h5.19l-6.84-19.49ZM93.34,16.91c-.86,0-1.72-.14-2.51-.36l2.51-8.53,2.51,8.53c-.82.21-1.65.36-2.51.36Z"/>
  <path d="M166.27,4.19h-5.98l-6.81,19.49h5.19l.97-3.3c1.15.32,2.36.54,3.65.54s2.47-.18,3.65-.54l.97,3.3h5.19l-6.84-19.49ZM163.26,16.91c-.86,0-1.72-.14-2.51-.36l2.51-8.53,2.51,8.53c-.79.21-1.61.36-2.51.36Z"/>
  <path d="M6.83,11.07c-.11-.14-.32-.22-.5-.22-.14.04-.29.14-.36.29L.06,22.96c-.14.25-.04.57.21.68.07.04.14.07.21.07h8.24c.18,0,.39-.11.47-.29,1.76-3.58.68-9.13-2.36-12.36Z"/>
  <path d="M23.71,22.96c-.14-.21-11.07-22.14-11.36-22.67-.07-.18-.22-.29-.39-.29h-.04c-.18,0-.36.11-.47.29-2.97,4.69-3.3,10.39-.9,15.19l3.98,7.92c.07.18.25.29.47.29h8.24c.29,0,.5-.21.5-.5,0-.07,0-.14-.04-.21Z"/>
</svg>