<?xml version="1.0" encoding="UTF-8"?>
<svg id="Layer_1" xmlns="http://www.w3.org/2000/svg" viewBox="0 0 340.4 50.09">
  <path d="M137.8,17.17c-8.6-.4-15.9,6.3-16.3,15v1.5c0,9.8,7.2,16.4,17.7,16.4,2.9,0,5.7-.5,8.3-1.6l4.5-7.4-.6-.3c-3.5,1.9-7.5,3-11.5,3-5.4,0-10-2.7-10.6-7.4h23.8v-2.2c.1-10.9-6.5-17-15.3-17M129.4,30.47c.2-4.3,3.8-7.6,8-7.4h0c4.9,0,7.9,2.9,7.9,7.4h-15.9ZM300.1,17.17c-8.6-.4-15.9,6.3-16.3,15v1.5c0,9.8,7.2,16.4,17.7,16.4,2.9,0,5.7-.5,8.3-1.6l4.5-7.4-.6-.3c-3.5,1.9-7.5,3-11.5,3-5.4,0-10-2.7-10.6-7.4h23.8c1-12.3-5.6-19.2-15.3-19.2M291.6,30.47c.2-4.3,3.8-7.6,8-7.4h0c4.9,0,7.9,2.9,7.9,7.4h-15.9ZM191,17.17c-8.6-.4-15.9,6.3-16.3,15v1.5c0,9.8,7.2,16.4,17.7,16.4,2.9,0,5.7-.5,8.3-1.6l4.4-7.4-.6-.3c-3.5,1.9-7.5,3-11.5,3-5.4,0-10-2.7-10.6-7.4h23.8c1.1-12.3-5.5-19.2-15.2-19.2M182.5,30.47c.2-4.3,3.8-7.6,8-7.4h0c4.9,0,7.9,2.9,7.9,7.4h-15.9ZM29.6,24.97v-.1c4.7-1.1,8-5.3,8-10.1,0-8.5-7.1-11.7-14.1-11.7H0v.7l2.4,2c2.8,2.3,3.2,2.8,3.2,4.9v38.6h16.6c8.7,0,17.4-3.1,17.4-13.2.1-5.7-4.2-10.6-10-11.1M13.8,10.17h6.8c4.6,0,6,.6,7.4,2,1.1,1,1.6,2.5,1.5,4,0,1.5-.5,2.8-1.6,3.9-1.4,1.3-3.2,1.9-6.6,1.9h-7.5v-11.8ZM21.3,42.27h-7.5v-13.3h7.9c6.6,0,9.8,1.7,9.8,6.5-.1,6-6,6.8-10.2,6.8M55.1,7.37c.2,2.8-1.9,5.2-4.7,5.3-2.8.2-5.2-1.9-5.3-4.7s1.9-5.2,4.7-5.3h.3c2.7-.1,4.9,1.9,5.1,4.5q-.1.1-.1.2M42,17.97h12v31.3h-7.8v-24.6c0-2.6-.1-3-3-5.2l-1.2-1v-.5ZM104.1,1.77l2.5,1.6c2.2,1.4,2.6,2.1,2.6,4.1v14.5h-.2c-2.6-3.2-6.5-5-10.6-4.8-8.9,0-15.1,7.2-15.1,16.4s5.7,16.4,15.4,16.4c4.3.2,8.4-1.8,10.7-5.4h.1l.8,4.7h6.6V1.17h-12.8v.6ZM100.2,42.97c-5.2.1-9.5-4-9.6-9.2s4-9.5,9.2-9.6,9.5,4,9.6,9.2v.2c.2,5-3.7,9.2-8.8,9.4h-.4M266.1,1.77l1.1.7c3.8,2.4,4.2,3.1,4.2,7.1v12.4h-.2c-2.6-3.2-6.5-5-10.6-4.8-8.9,0-15.1,7.2-15.1,16.4s5.8,16.5,15.4,16.5c4.3.2,8.4-1.8,10.7-5.4h.1l.8,4.7h6.6V1.17h-13.1l.1.6ZM262.5,42.97c-5.2.1-9.5-4-9.6-9.2s4-9.5,9.2-9.6,9.5,4,9.6,9.2v.2c.2,5-3.7,9.2-8.7,9.4h-.5M340.4,17.57v7.6c-1.2-.3-2.5-.5-3.8-.6-4.3-.3-8.1,3-8.4,7.3v17.4h-7.8v-23.1c0-3.9-.2-4.5-3.4-6.5l-2-1.3v-.3h13.2v5h.1c1.7-3.6,5.3-5.8,9.2-5.7,1.1-.2,2,0,2.9.2M167,17.87h7.2v6.7h-7.2v24.8h-7.8v-22.2c0-2.6-.5-3.2-3.6-5.7l-4-3.2v-.5h7.6v-5.7c0-8.5,5.5-13.9,17.5-11.5l1.8,6.6-.4.3c-6.2-2.4-11.1-.8-11.1,4.6v5.8ZM241,29.47v19.8h-7.8v-17.4c0-3.4-.9-7.6-6.3-7.6-5.1,0-7.2,3.8-7.2,8v17.1h-7.8v-23.2c0-3.9-.2-4.5-3.4-6.5l-1.9-1.3v-.3h12.8v4.8h.1c2.2-3.4,5.9-5.5,10-5.5,7.3-.2,11.6,4.9,11.5,12.1M80.8,42.97l.3.2-3.9,6.2c-6.3,1.7-13.5-.1-13.5-10.3v-12.7c0-2-.3-1.9-4.7-5.5l-2.8-2.5v-.4h7.6l2.9-9.1h5v9.1h8.4v6.6h-8.4v14.2c-.2,5.7,3.7,5.8,9.1,4.2"/>
</svg>