<?xml version="1.0" encoding="UTF-8"?>
<svg id="Layer_1" xmlns="http://www.w3.org/2000/svg" viewBox="0 0 101.1 22.3">
  <rect x="23.8" y=".4" width="5.4" height="21.4"/>
  <path d="M72.8,6.5c-.2-.1-2-1.1-4.6-1.1-3.5,0-5.9,2.4-5.9,5.7s2.3,5.7,5.9,5.7c2.5,0,4.3-1,4.6-1.1v5.8c-.7.1-2.5.7-4.9.7-6.1,0-11.4-4.2-11.4-11.1C56.5,4.7,61.3,0,67.9,0,70.4,0,72.3.6,72.8.8v5.7Z"/>
  <path d="M16.3,6.5c-.2-.1-2-1.1-4.5-1.1-3.5,0-5.9,2.4-5.9,5.7s2.3,5.7,5.9,5.7c2.5,0,4.3-1,4.5-1.1v5.8c-.7.2-2.5.8-4.9.8C5.3,22.3,0,18.1,0,11.2,0,4.8,4.8.1,11.4.1c2.5,0,4.4.6,4.9.8v5.6Z"/>
  <path d="M101.1,11.1c0,6.1-4.7,11.1-11.3,11.1s-11.3-5-11.3-11.1S83.2,0,89.8,0c6.6,0,11.3,5,11.3,11.1M89.8,5.5c-3.2,0-5.6,2.5-5.6,5.6s2.4,5.6,5.6,5.6,5.6-2.5,5.6-5.6-2.4-5.6-5.6-5.6"/>
  <path d="M49.7,5.3c-.1,0-2.4-.7-4.2-.7-2.2,0-3.3.7-3.3,1.8,0,1.3,1.6,1.8,2.5,2l1.5.5c3.5,1.1,5.1,3.5,5.1,6.1,0,5.4-4.7,7.2-8.9,7.2-2.9,0-5.6-.5-5.8-.6v-4.9c.5.1,2.7.8,5.1.8,2.7,0,3.9-.8,3.9-2,0-1.1-1.1-1.7-2.4-2.1-.3-.1-.8-.3-1.2-.4-3-1-5.5-2.7-5.5-6.3,0-4,3-6.7,8-6.7,2.6,0,5.1.6,5.3.7v4.6h-.1Z"/>
</svg>