<?xml version="1.0" encoding="UTF-8"?>
<svg id="Layer_1" xmlns="http://www.w3.org/2000/svg" viewBox="0 0 1105.6 127">
  <path d="M0,125.8V1.6h137v27.6H30.3v21h91.9v26.8H30.3v48.7c0,.1-30.3.1-30.3.1ZM458.4,125.8v-42.3c0-3.7-3.2-5.4-3.2-5.4-1.4-.9-5.7-1.1-12.1-1.1h1.4-63.9v48.9h-30.3V1.6h94.5c16.4,0,27.6,2.5,35.3,10,7.7,7.8,8.6,18,8.7,28.5v8.9c.2,8.9-4.6,17.1-10.3,21.9l1.1.5c2.3,1.1,3.6,2.7,3.6,2.7,4.3,5.5,4.3,10.2,4.3,16.1v35.5h-29.1v.1ZM442,50.3c7.5,0,11.8,0,13.6-1.1,0,0,3-1.8,3.2-5.4v-8.2c0-3.7-3.2-5.4-3.2-5.4-2.3-1.2-6.4-1.1-15.9-1.1h-59v21h62.6-1.3v.2ZM533.3,125.8V29.3h-28.5V1.6h113.8v27.6h-54.9v96.5c0,.1-30.4.1-30.4.1ZM541.2,21.4v-4.1,4.1ZM1012.4,125.8V29.3h-28.5V1.6h113.8v27.6h-54.9v96.5c0,.1-30.4.1-30.4.1ZM633.6,125.8V1.6h30.3v124.1h-30.3v.1ZM846.5,125.8V1.6h122.2v27.6h-91.9v21h63.9v26.8h-63.9v21h92.6v27.6c0,.2-122.9.2-122.9.2ZM717.1,125.8h-30.5V1.6h97.9s18-.7,29.3,10.5c0,0,11.6,9.8,11.6,33.5v80.1h-30.4V43.7s.4-8.4-2.5-11.2c0,0-2.5-3.2-7.3-3.2h-68.1v96.5h0ZM1090.6,125.6c-8.4,0-15-6.8-15-15s6.8-15,15-15,15,6.8,15,15c-.1,8.4-6.7,15-15,15ZM1090.6,97.4c-7.3,0-13.2,5.9-13.2,13.4s5.9,13.2,13.2,13.2,13.2-5.9,13.2-13.2c.1-7.5-5.9-13.4-13.2-13.4ZM1085,101.8h7.3c2.5,0,5,.5,5.4,4.3,0,2.1-.5,2.9-2.1,4.1,1.8,1.1,1.8,1.4,2,4.3.2,2.1-.2,2.5.7,3.9h-2.5l-.4-2.1c-.4-2,.5-5-2.9-5h-5.4v7.1h-2.1v-16.6h0ZM1087.2,103.8v5.7h5.4c1.4,0,2.9-.4,3-2.5.4-2.9-1.8-3.2-3-3.2h-5.4Z"/>
  <path d="M150.4,47.1h50.3v33h-50.3v-33ZM214.6.2h49.4v33h-49.4V.2ZM214.6,93.8h49.4v33h-49.4v-33ZM277.7,47.1h50.5v33h-50.5v-33ZM171.1.2c-10.5,2.7-18.7,14.4-20.7,29.4v3.7h50.3V.2h-29.6ZM150.4,93.8v4.1c1.8,14.3,9.5,25.7,19.4,28.9h31v-33h-50.4ZM328.2,33.2v-3.7c-2-14.9-10.2-26.6-20.7-29.5h-29.8v33h50.5v.2ZM308.8,127c9.8-3.4,17.5-14.6,19.4-28.9v-4.1h-50.5v33h31.1Z"/>
</svg>