<?xml version="1.0" encoding="UTF-8"?>
<svg id="Calque_1" xmlns="http://www.w3.org/2000/svg" viewBox="0 0 1268 561">
  <g id="logo_art">
    <g>
      <path d="M462.51,298.62l-18.05-55.58s.01.05.02.08c0-.03-.01-.06-.02-.09,0,0,0,0,0,0h0s-35.83-110.3-35.83-110.3c-1.96-5.81-7.35-9.71-13.54-9.66-6.2.03-11.45,3.86-13.36,9.75l-34.01,104.7h-107.31l-34.07-104.7c-1.92-5.89-7.16-9.71-13.36-9.74h-.07c-6.1,0-11.51,3.88-13.49,9.75l-35.73,110.2h0v.02s-.01.06-.02.08c0-.02.01-.05.02-.08l-18.11,55.59c-2.72,8.39.23,17.51,7.36,22.7l156.4,113.64s.05.03.07.04c.07.05.13.1.2.14-.06-.04-.12-.09-.19-.13,0,0,0,0,0,0,.01,0,.02.01.03.02,0,0,.02.01.03.02,0,0,0,0,0,0,.24.17.49.32.75.46.04.02.07.05.1.06,0,0,0,0,0,0,.02.01.04.02.06.04.02,0,.04.01.05.02.01,0,.02.01.04.02.03.01.06.02.09.04.14.07.28.12.42.17.13.05.26.12.39.16,0,0,.01,0,.02,0,.02,0,.04.02.07.03.03.01.05.02.08.03.01,0,.02,0,.03,0,.04.01.07.02.11.03.01,0,.03,0,.04.01.19.06.38.1.58.14.08.02.15.04.23.05.01,0,.02,0,.03,0,.02,0,.05.01.07.02.04,0,.08.02.12.03.03,0,.07,0,.1,0,0,0,.01,0,.02,0h0c.37.05.74.09,1.12.09h.01c.38,0,.76-.04,1.13-.09h0s.01,0,.02,0c.03,0,.07,0,.1,0,.04,0,.08-.02.12-.03.02,0,.05-.01.07-.02.01,0,.02,0,.03,0,.08-.02.15-.04.23-.06.19-.04.38-.08.57-.14.01,0,.03,0,.04,0,.04-.01.08-.02.11-.03.01,0,.02,0,.03,0,.03,0,.06-.02.08-.03.02,0,.04-.02.06-.03,0,0,.01,0,.02,0,.14-.05.28-.12.42-.17.13-.05.26-.1.39-.16.03-.02.06-.02.09-.04.01,0,.03-.01.04-.02.02,0,.04-.01.05-.02.02-.01.05-.03.07-.04,0,0,0,0,0,0,.04-.02.07-.05.11-.07.26-.14.51-.29.75-.46.02-.01.04-.02.06-.04,0,0,.01,0,.02-.01.02-.02.05-.03.07-.05l156.43-113.64c7.12-5.18,10.08-14.3,7.36-22.69ZM395.19,143.05l30.68,94.45h-61.36l30.68-94.45ZM420.49,253.47l-12.52,16.04-92.33,118.3,43.67-134.34h61.17ZM286.43,430.96s0,0,0,0c0,.02.02.05.03.07,0-.02-.02-.05-.03-.07ZM272.42,387.81l-104.79-134.35h61.18l43.61,134.35ZM192.89,143.05l30.73,94.45h-61.36l30.62-94.45ZM142.32,308.39c-1.52-1.1-2.14-3.05-1.56-4.84l13.46-41.32,98.66,126.49-110.57-80.33ZM289.06,434.74s-.06-.05-.09-.08c0,0-.01-.01-.02-.02-.06-.05-.12-.1-.18-.15-.11-.1-.23-.2-.33-.31,0,0,.02.02.03.02.01.01.02.02.04.03.23.22.47.42.72.61,0,0,0,0,0,0,.01,0,.02.02.03.03-.07-.05-.14-.1-.21-.15ZM294.03,402.65l-25.66-79.05-22.76-70.12h96.93l-48.5,149.18ZM299.28,434.49c-.06.05-.12.1-.18.15,0,0-.01.01-.02.02-.03.02-.06.05-.09.08-.07.05-.14.1-.21.15.01,0,.02-.02.04-.03h0c.25-.2.49-.4.72-.62,0,0,.02-.02.03-.02.01-.01.02-.02.04-.03-.11.1-.22.2-.33.3ZM445.76,308.39l-110.55,80.31,98.7-126.46,13.41,41.3c.58,1.79-.04,3.74-1.56,4.84Z"/>
      <g>
        <path id="path14" d="M840.7,199.19h-21.8l.1,162.5h88.3v-20.1h-66.5l-.1-142.4h0Z"/>
        <g id="g24">
          <path id="path26" d="M991.33,333.18c-5.5,5.7-14.6,11.4-27,11.4-16.6,0-23.3-8.2-23.3-18.9,0-16.1,11.2-23.8,35-23.8,4.5,0,11.7.5,15.4,1.2v30.1h-.1ZM968.73,234.68c-17.6,0-33.8,6.2-46.4,16.7l7.7,13.4c8.9-5.2,19.8-10.4,35.5-10.4,17.9,0,25.8,9.2,25.8,24.6v7.9c-3.5-.7-10.7-1.2-15.1-1.2-38.2,0-57.6,13.4-57.6,41.4,0,25.1,15.4,37.7,38.7,37.7,15.7,0,30.8-7.2,36-18.9l4,15.9h15.4v-83.2c-.1-26.3-11.5-43.9-44-43.9h0Z"/>
        </g>
        <g id="g28">
          <path id="path30" d="M1083.07,345.32c-8.2,0-15.4-1-20.8-3.5v-75.1c7.4-6.2,16.6-10.7,28.3-10.7,21.1,0,29.2,14.9,29.2,39,0,34.2-13.1,50.3-36.7,50.3M1092.27,234.72c-19.5,0-30,13.3-30,13.3v-21l-.1-27.8h-21.3l.1,158.5c10.7,4.5,25.3,6.9,41.2,6.9,40.7,0,60.3-26,60.3-70.9-.1-35.5-18.2-59-50.2-59"/>
        </g>
        <g id="g32">
          <path id="path34" d="M603.34,216.82c19.3,0,31.8,6.4,39.9,12.9l9.4-16.3c-12.7-11.2-29.9-17.2-48.3-17.2-46.4,0-78.9,28.3-78.9,85.4s35.1,83.1,75.2,83.1c20.1,0,37.2-4.7,48.4-9.4l-.5-63.9v-20.1h-59.5v20.1h38l.5,48.5c-5,2.5-13.6,4.5-25.3,4.5-32.2,0-53.8-20.3-53.8-63-.1-43.5,22.2-64.6,54.9-64.6"/>
        </g>
        <g id="g36">
          <path id="path38" d="M756.87,199.17h-21.3l.1,27.3v94.3c0,26.3,11.4,43.9,43.9,43.9,4.5,0,8.9-.4,13.1-1.2v-19.1c-3.1.5-6.4.7-9.9.7-17.9,0-25.8-9.2-25.8-24.6v-65h35.7v-17.8h-35.7l-.1-38.5h0Z"/>
        </g>
        <path id="path40" d="M681.4,361.69h21.3v-124h-21.3v124h0Z"/>
        <path id="path42" d="M681.4,220.59h21.3v-21.3h-21.3v21.3h0Z"/>
      </g>
    </g>
  </g>
</svg>