<?xml version="1.0" encoding="UTF-8"?>
<svg id="Calque_1" xmlns="http://www.w3.org/2000/svg" viewBox="0 0 471.92 259.7">
  <g id="layer1">
    <g id="g4266">
      <path id="path3058" d="M103.71,105.15s91.14-37.81,114.69-10.34c23.15,27-27.46,95.36-179.31,150.5-138.84,50.42,136.77-41.36,136.77-125.23,0-19.53-71.08-14.36-72.16-14.93h.01Z" style="isolation: isolate; opacity: .7;"/>
      <path id="path3056" d="M210.33,1.75v17.81S68.71,7.49,68.71,107.45c0,94.74,125.76,83.96,137.85,85.59v19.53S2.48,236.71,2.48,108.6C2.48-10.32,198.98-2.01,210.33,1.75Z"/>
    </g>
  </g>
  <g>
    <g>
      <path d="M300.99,210.94c-1.67.31-4.44.68-8.31,1.14-3.87.45-8.01.68-12.41.68-9.41,0-15.9-2.85-19.46-8.54-3.57-5.69-5.35-14.45-5.35-26.29V52.28h30.27v124.51c0,3.64.45,6.19,1.37,7.63.91,1.44,2.81,2.16,5.69,2.16,1.67,0,3.3-.11,4.89-.34s2.69-.42,3.3-.57v25.27h.01Z"/>
      <path d="M321.47,250.32V97.81h24.59l2.28,9.33c3.49-3.49,7.51-6.26,12.06-8.31,4.55-2.05,9.86-3.07,15.93-3.07s11.68.87,16.39,2.62c4.7,1.75,8.57,4.59,11.61,8.54,3.03,3.95,5.31,9.22,6.83,15.82,1.51,6.6,2.27,14.84,2.27,24.7,0,12.45-.95,22.92-2.84,31.41-1.9,8.5-4.93,15.33-9.11,20.49-4.17,5.16-9.67,8.84-16.5,11.04s-15.18,3.3-25.04,3.3h-4.1c-1.36,0-2.73-.08-4.09-.23v36.88h-30.28,0ZM368.37,121.71c-5.01,0-9.03,1.82-12.06,5.46-3.04,3.64-4.55,7.51-4.55,11.61v48.49c1.67.15,3.34.27,5.01.34,1.67.08,3.26.11,4.78.11,4.25,0,7.74-.49,10.47-1.48,2.73-.98,4.89-2.88,6.49-5.69,1.59-2.81,2.69-6.68,3.3-11.61.6-4.93.91-11.34.91-19.23,0-5.77-.23-10.47-.68-14.11-.46-3.64-1.25-6.49-2.39-8.54-1.14-2.05-2.62-3.45-4.44-4.21s-4.1-1.14-6.83-1.14h-.01Z"/>
      <path d="M439.61,211.62v-109.6h26.84l3.43,109.6h-30.28.01Z"/>
    </g>
    <path d="M470.95,51c3.18,9.49-1.74,20.1-10.99,23.71s-19.35-1.07-22.58-10.46c-3.23-9.39,1.65-20.05,10.96-23.75,9.3-3.71,19.43,1.01,22.62,10.51h-.01Z"/>
  </g>
</svg>