<?xml version="1.0" encoding="UTF-8"?>
<svg id="Calque_1" xmlns="http://www.w3.org/2000/svg" viewBox="0 0 299.5 84">
  <path d="M0,42v42h22v-34h31v34h22V0h-22v32h-31V0H0v42M94.7,41.28c-8.63,22.7-15.7,41.6-15.7,42s5.37.72,11.94.72h11.94l2.26-7.02,2.26-7.03,15.46.28,15.46.27,2.17,6.5,2.17,6.5,12.29.28c9.66.22,12.19,0,11.82-1-.26-.7-7.4-19.61-15.87-42.01L135.5.04l-12.55-.02-12.55-.02-15.7,41.28M170,42v42h49v-19h-26V0h-23v42M244.33,1.88c-38.39,14.23-37.03,68.44,2.02,80.3,19.28,5.85,40.87-3.69,49.91-22.06,3.08-6.25,3.23-7.12,3.23-18.09s-.18-11.9-3.19-18.26c-4.15-8.75-11.35-15.94-20.07-20.04-5.93-2.79-7.95-3.2-16.74-3.46-7.92-.23-11.07.1-15.17,1.62M251.88,21.38c-6.02,2.15-9.99,5.66-12.49,11.02-3.53,7.58-2.93,15.02,1.76,21.75,1.07,1.53,1.85,4.39,1.85,6.77v4.12l3.75-1.89c2.48-1.25,4.43-1.62,5.75-1.09,9.56,3.83,23.22-4,26.06-14.94,2.11-8.14.47-14.18-5.45-20.11-6.4-6.4-13.67-8.33-21.22-5.63M118.48,38.7c-2.19,6.4-4.13,12.01-4.32,12.47-.18.46,3.74.83,8.71.83h9.05l-4.12-11.75c-2.27-6.46-4.39-12.07-4.73-12.47-.33-.39-2.4,4.52-4.59,10.92" style="fill-rule: evenodd;"/>
</svg>