<?xml version="1.0" encoding="UTF-8"?>
<svg id="Layer_1" xmlns="http://www.w3.org/2000/svg" xmlns:xlink="http://www.w3.org/1999/xlink" viewBox="0 0 186.97 40.08">
  <defs>
    <clipPath id="clippath">
      <rect y="0" width="186.97" height="40.08" style="fill: none;"/>
    </clipPath>
  </defs>
  <g style="clip-path: url(#clippath);">
    <g id="Group_1">
      <path id="Path_1" d="M14.19,28.13l-9.08-5.35s-4.75,1.8-5.11,1.91c4.31,1.78,8.52,3.8,12.61,6.05,2.17,1.29,4.26,2.73,6.25,4.29-.23-1.28-.67-2.5-1.32-3.63-.84-1.34-1.99-2.46-3.35-3.27"/>
      <path id="Path_2" d="M10.6,8.99c.09.22.2.43.31.64.95,1.72,3.06,3.77,7.76,4.51l.66.1-.04.26h0s-.48,3.25-.48,3.25c2.13-.49,3.63-2.38,3.63-4.56.08-2.48-1.8-4.59-4.27-4.78-.12-.02-.26-.03-.41-.05-1.31-.15-3.52-.39-4.6-1.63-1.42-1.63-1.15-4.56-.77-6.47-2,3.38-2.44,5.97-2.01,7.96.06.26.13.52.22.77"/>
      <path id="Path_3" d="M17.81,15.36c-2.7-.38-5.19-1.66-7.06-3.65l-4.81,9.93,10.07,5.84,1.8-12.12Z"/>
      <path id="Path_4" d="M14.4,6.04v.02c.06.03.1.06.14.09.33.2.68.36,1.05.46.07.02.15.04.22.06.69.17,1.4.28,2.11.35.16.02.3.03.43.05,2.55.23,4.66,2.06,5.26,4.54l8.72-3.74,1.79,3.19-.6-9.71c-.62,1.11-1.81,1.79-3.09,1.76,1.68-.73,1.65-1.15,1.65-1.15-1.65-1.41-5.35-1.97-7.64-1.97-9.94,0-12.01,4.33-10.03,6.04"/>
      <path id="Path_5" d="M34.67,22.48c-.78,0-1.89,0-1.89,0-.32,1.71-.38,3.47-.19,5.2-.7-1.97-.93-4.08-.67-6.16.8-.27,1.64-.39,2.48-.35,0,0-1.08-1.86-1.23-2.1-1.49.1-2.94.48-4.29,1.12l-.88.4-.07-.96c0-.06-.51-5.34-4.14-6.48v.03c0,3-2.21,5.54-5.17,5.95l-1.35,9.1,5.44,3.25c-.34-6.59-.23-9.33.13-9.12s.23,6.71,1.31,9.97l6.14,3.61c-.54-3.2-.82-6.43-.84-9.67.26,3.6,1.03,7.14,2.29,10.52l5.54,3.27c-.05-.2-1.77-7.14-2.46-10.51-.47-2.31-.92-4.66-.15-7.08"/>
      <path id="Path_6" d="M31.35,13.37h0c-.19.31-.58.42-.91.28h0s-.07-.03-.1-.05c-.21-.13-.34-.36-.34-.61h0s-1.99-.12-1.99-.12h-.28s.7-.35.7-.35l1.36-.58,2.1.5-.54.95ZM25.28,12.36c2.15,1.41,3.57,3.69,3.88,6.25,3.6-1.6,4.37-.76,5.57-.05l1.42-.9-4.41-8.07-6.46,2.77Z"/>
      <rect id="Rectangle_1" x="174.94" y="4.93" width="4.46" height="27.52"/>
      <path id="Path_7" d="M159.39,28.25c-.28-.44-.43-.96-.41-1.49-.02-.49.12-.98.39-1.39.3-.4.71-.71,1.18-.88.68-.24,1.39-.35,2.11-.32.97,0,1.93.13,2.86.39.42.12.82.27,1.21.46v.19c.02.81-.19,1.6-.61,2.29-.4.63-.96,1.13-1.62,1.47-.71.35-1.49.53-2.28.51-.58.01-1.16-.09-1.7-.3-.47-.18-.86-.5-1.14-.92M167.38,14.52c-1.26-.45-2.6-.67-3.94-.65-1.53-.03-3.04.21-4.49.71-1.1.39-2.16.87-3.18,1.45l-.09.05,1.82,3.14.09-.06c.29-.18.69-.41,1.2-.68.6-.3,1.22-.53,1.87-.69.76-.2,1.55-.29,2.34-.29.5,0,1.01.05,1.5.15.43.09.83.25,1.19.49.33.21.59.51.77.86.19.43.28.89.26,1.36v2.03c-.62-.34-1.28-.6-1.96-.8-1.02-.28-2.07-.41-3.13-.39-1.88-.12-3.74.44-5.25,1.57-1.24,1.05-1.93,2.61-1.87,4.23-.09,2.22,1.19,4.27,3.22,5.17.99.45,2.07.68,3.16.67,1.06,0,2.11-.2,3.1-.57.98-.36,1.86-.97,2.54-1.77.07-.08.13-.16.19-.25v2.19h4.34v-12.9c.03-1.12-.31-2.21-.98-3.11-.71-.88-1.65-1.55-2.72-1.92"/>
      <path id="Path_8" d="M137.5,26.4c-.51-.93-.76-1.97-.73-3.03-.03-1.06.22-2.1.73-3.03.45-.81,1.12-1.47,1.93-1.91.81-.43,1.71-.66,2.63-.65.83,0,1.65.23,2.37.65.78.46,1.44,1.11,1.89,1.89.52.93.78,1.98.75,3.05.03,1.07-.22,2.12-.75,3.05-.45.79-1.11,1.44-1.89,1.9-.72.42-1.54.65-2.37.65-.92,0-1.82-.22-2.63-.65-.81-.44-1.48-1.11-1.93-1.91M147.07,17.06c-.53-.79-1.22-1.47-2.01-2.01-1.19-.78-2.59-1.18-4.02-1.15-1.53,0-3.03.38-4.36,1.12-1.36.76-2.49,1.88-3.26,3.24-.85,1.56-1.27,3.32-1.22,5.1-.05,1.77.38,3.53,1.22,5.09.76,1.37,1.89,2.5,3.26,3.26,1.33.74,2.84,1.13,4.36,1.12,1.42.03,2.83-.37,4.02-1.15.79-.54,1.47-1.22,2.01-2.02v2.77h4.46V4.93h-4.46v12.13Z"/>
      <path id="Path_9" d="M126.7,14.72c-.98-.58-2.11-.86-3.25-.82-1.14-.02-2.27.26-3.27.81-.95.55-1.75,1.33-2.33,2.27-.37-.93-1.02-1.71-1.86-2.24-1-.58-2.15-.87-3.31-.83-2.04-.09-3.96.96-4.97,2.73v-2.34h-4.34v18.15h4.34v-11.03c-.02-.74.13-1.47.44-2.14.26-.55.68-1.01,1.21-1.32.55-.31,1.17-.46,1.8-.45.85-.07,1.67.29,2.2.95.53.89.77,1.93.7,2.96v11.03h4.42v-11.03c-.02-.74.13-1.47.44-2.14.26-.55.68-1.01,1.21-1.32.56-.31,1.2-.47,1.84-.45.84-.06,1.65.29,2.16.95.53.89.77,1.93.7,2.96v11.03h4.46v-11.53c.03-1.29-.19-2.58-.65-3.79-.38-.98-1.05-1.82-1.93-2.41"/>
      <rect id="Rectangle_2" x="94.9" y="14.29" width="4.38" height="18.15"/>
      <path id="Path_10" d="M97.08,4.58c-.72,0-1.41.27-1.92.77-.54.48-.84,1.18-.83,1.91,0,.72.3,1.41.83,1.89.51.51,1.2.79,1.92.79.74.01,1.46-.27,1.98-.79.52-.49.82-1.17.81-1.89.01-.72-.28-1.42-.81-1.91-.53-.51-1.25-.78-1.98-.77"/>
      <path id="Path_11" d="M78.26,19.98c.35-.81.94-1.5,1.68-1.99.8-.48,1.72-.72,2.66-.69.79-.02,1.58.18,2.27.57.65.38,1.17.94,1.52,1.6.3.57.48,1.2.53,1.84h-9.08c.09-.46.23-.91.42-1.34M87.54,15.01c-1.52-.77-3.21-1.15-4.91-1.1-1.74-.04-3.46.36-5,1.16-1.4.75-2.55,1.9-3.3,3.3-.8,1.54-1.2,3.26-1.17,5-.04,1.72.36,3.43,1.14,4.97.74,1.4,1.88,2.55,3.26,3.32,1.49.81,3.17,1.22,4.87,1.18,1.87.05,3.73-.38,5.4-1.24,1.54-.87,2.82-2.15,3.71-3.69l.06-.1-3.86-1.52-.04.08c-.48.88-1.19,1.61-2.07,2.11-.93.48-1.96.72-3,.69-.95.03-1.89-.21-2.72-.69-.76-.48-1.35-1.19-1.7-2.02-.27-.64-.45-1.31-.51-2.01h13.97v-.1c0-.1,0-.27.02-.5s.02-.46.02-.67c.05-1.72-.32-3.43-1.06-4.98-.69-1.35-1.77-2.46-3.1-3.18"/>
      <path id="Path_12" d="M65.24,15.47h-11.25V4.93h-4.81v27.52h4.81v-12.53h11.25v12.53h4.81V4.93h-4.81v10.54Z"/>
      <path id="Path_13" d="M186.17,8.58c-.11.26-.27.5-.48.7-.21.2-.45.36-.72.46-.58.22-1.21.22-1.79,0-.54-.21-.97-.62-1.2-1.16-.22-.56-.22-1.19,0-1.75.23-.53.66-.95,1.2-1.16.58-.22,1.21-.22,1.79,0,.27.1.51.26.72.46.2.2.37.44.48.7.22.56.22,1.19,0,1.75M186.75,6.6c-.14-.33-.35-.63-.61-.88-.26-.25-.58-.45-.92-.58-.74-.27-1.54-.27-2.28,0-.34.13-.66.32-.92.58-.82.81-1.06,2.04-.61,3.1.29.68.85,1.2,1.54,1.46.74.27,1.54.27,2.28,0,1.43-.57,2.12-2.2,1.55-3.63,0-.01-.01-.03-.02-.04"/>
      <path id="Path_14" d="M184.42,7.34c-.12.08-.26.12-.4.11h-.33v-.83h.33c.14,0,.28.03.4.11.09.07.14.18.13.3,0,.12-.04.23-.13.31M184.96,7.8c.24-.19.37-.48.36-.78,0-.3-.13-.58-.36-.76-.26-.2-.59-.3-.91-.29h-1.11v3.31h.75v-1.2h.18l.8,1.2h.91l-.96-1.3c.12-.04.23-.11.33-.19"/>
    </g>
  </g>
</svg>