<?xml version="1.0" encoding="UTF-8"?>
<svg id="Layer_1" xmlns="http://www.w3.org/2000/svg" viewBox="0 0 254.33 74.1">
  <g id="IONOS">
    <path d="M235,74.1c-1.3,0-2.5-.1-3.7-.4-5.4-1.1-10-4.4-12.8-9.1l-.1-.1c-1.4-2.8-.5-6,2.1-7.6.9-.5,1.8-.8,2.8-.8,2,0,3.9,1.1,4.9,2.9.1.1.1.2.2.3l.6.8.8.8c1,.9,2.3,1.5,3.7,1.8,2.2.4,4.6-.1,6.3-1.4,1.9-1.4,3-3.4,3.2-5.7s-.6-4.6-2.2-6.1c0,0-18.4-19-18.8-19.5l-.9-1.3c-2.2-3.5-3.1-7.4-2.8-11.3.2-2.7,1-5.4,2.4-7.8l.8-1.4c.1-.2,2.5-3.6,5.6-5.1l.9-.7c3.8-2.1,8.4-2.8,12.6-1.9,5.2,1.1,9.7,4.4,12.4,8.9.8,1.3,1,2.8.6,4.3s-1.3,2.7-2.7,3.5c-.8.5-1.8.7-2.7.7-2,0-3.9-1.1-4.9-2.9-1.1-1.8-2.8-3.1-4.9-3.5-2-.4-4.3.1-6,1.3-1.6,1.2-2.7,3.1-2.8,5.3-.2,2.1.6,4.2,2,5.7l17.3,17.9c3.8,3.9,5.7,9.3,5.4,14.8-.5,5.6-3.3,10.6-7.6,13.8-3.4,2.4-7.6,3.8-11.7,3.8Z"/>
    <path d="M180.2,74.1c-10.3,0-18.6-8.4-18.6-18.6V18.6c0-10.3,8.4-18.6,18.6-18.6s18.6,8.4,18.6,18.6v36.9c0,10.3-8.4,18.6-18.6,18.6ZM180.2,11.3c-4.1,0-7.4,3.3-7.4,7.4v36.9c0,4.1,3.2,7.4,7.4,7.4s7.4-3.3,7.4-7.4V18.6c0-4-3.4-7.3-7.4-7.3Z"/>
    <path d="M107.8,38v30.5c0,3.2-2.5,5.6-5.6,5.6s-5.6-2.5-5.6-5.6V14.7l11.2,23.3ZM138.2,59.5V5.6c0-3.2-2.5-5.6-5.6-5.6s-5.6,2.5-5.6,5.6v30.5l11.2,23.4ZM107.3,3.2l-.1-.1C106.2,1.2,104.2,0,102.1,0,101.7,0,101.3,0,101,.1c-2.6.5-4.4,2.8-4.4,5.5v1.3l30.9,64.1c1,1.9,3,3.1,5,3.1.5,0,.9-.1,1.3-.2,2.6-.5,4.4-2.8,4.4-5.5v-1.2c0,.1-30.1-62.3-30.9-64Z"/>
    <path d="M54.4,74.1c-5,0-9.6-1.9-13.2-5.5s-5.5-8.2-5.5-13.2V18.6c0-5,1.9-9.6,5.5-13.2,3.6-3.5,8.2-5.4,13.2-5.4s9.6,1.9,13.2,5.5c3.5,3.5,5.4,8.2,5.4,13.1v36.9c0,5-1.9,9.6-5.5,13.2s-8.1,5.4-13.1,5.4ZM54.4,11.3c-2,0-3.8.8-5.2,2.2s-2.2,3.2-2.2,5.2v36.9c0,2,.8,3.9,2.1,5.2,1.4,1.4,3.2,2.1,5.2,2.1s3.8-.8,5.2-2.2,2.2-3.2,2.2-5.2V18.6c0-1.9-.8-3.8-2.2-5.2-1.3-1.4-3.2-2.1-5.1-2.1Z"/>
    <path d="M6.1,74.1c-3.4,0-6.1-2.7-6.1-6.2V6C0,2.6,2.7,0,6.1,0c2.9,0,5.2,1.8,5.9,4.5,0,.1.1.3.1.4v.3c.1.3.1.7.1,1v61.7c.1,3.5-2.6,6.2-6.1,6.2Z"/>
  </g>
</svg>