<?xml version="1.0" encoding="UTF-8"?>
<svg id="Layer_1" xmlns="http://www.w3.org/2000/svg" viewBox="0 0 618.2 117.7">
  <path d="M278.5,59.2c0,23.4-14.3,34.5-32.2,34.5h-10.9v-14.1h10.1c10.8,0,18-5.8,18-20.5s-6.8-21.7-18.3-21.7-19,6.8-19,21.4v58.8h-15V25.2h14.9v8h2.1c5-6.7,12.3-9.7,20-9.7,16.5,0,30.3,12,30.3,35.7ZM180.5,53.1l-9.9-1c-7.8-.7-11.9-2.8-11.9-7.4,0-5.4,5.3-8.5,12.8-8.5s12.8,3.7,13.2,8.9h14.3c-.6-13.4-10.9-21.6-27.4-21.6s-27.8,8.8-27.8,21.7c0,10.8,6.8,17.8,22.3,19.3l10.1,1c6.1.6,10.2,1.8,10.2,7.7,0,5.3-3.8,9.1-13.9,9.1-9.3,0-13.9-4.2-15.5-9.9h-15.5c1.5,12.9,12.4,22.9,31,22.9,17.5,0,28.8-9.2,28.8-22.9-.1-11.9-8-18.1-20.8-19.3ZM336.2,72.5c-2.3,5.4-7.9,9.4-15.9,9.4-10.9,0-19-7.1-19-22.4s7.5-22.7,19.2-22.7c10.4,0,16.3,6.2,16.9,15.6h-26.8v10.8h41.5v-7.1c0-19.7-13.1-32.5-31.7-32.5-17.3,0-33.9,11.8-33.9,35.9s16.6,35.9,33.9,35.9c15.8,0,27.2-9.8,30.7-22.9,0,0-14.9,0-14.9,0ZM101.1,23.5c-16.3,0-28.5,8.5-30,21.6h16c1.1-4.8,5.5-8.4,13.9-8.4,10.8,0,14.3,5.7,14.3,12.6v23.4c-6.1,7-13.2,10.2-20.3,10.2s-12.5-3.6-12.5-9.9,4-9.9,11.6-9.9h11.9v-10.7h-12.4c-17,0-26.6,8.5-26.6,21.6,0,12.2,9.2,21.4,24.4,21.4,8.5,0,16-3.4,21.6-7.5h2.1v5.8h14.9v-45.7c.4-16.9-11.1-24.5-28.9-24.5ZM0,93.7h14.9V0H0v93.7ZM62.6,25.2h-18.2l-21.7,28.6v8.9l22.3,31h18.5l-26.2-35.5,25.3-33ZM601.7,25.2l-12.2,27.1c-3,6.5-5.8,12.9-6.7,17.2h-2.1c-.9-4.3-3.8-10.5-6.8-17l-12.2-27.3h-16.5l28.7,61.5-14.2,31h15.9l42.6-92.5h-16.5ZM541.9,25.2h-18.2l-21.7,28.5v8.9l22.3,31h18.5l-26.1-35.5,25.2-32.9ZM448.5,53.1l-9.9-1c-7.8-.7-11.9-2.8-11.9-7.4,0-5.4,5.3-8.5,12.8-8.5s12.8,3.7,13.2,8.9h14.3c-.6-13.4-10.9-21.6-27.4-21.6s-27.8,8.8-27.8,21.7c0,10.8,6.8,17.8,22.3,19.3l10.1,1c6.1.6,10.2,1.8,10.2,7.7,0,5.3-3.8,9.1-13.9,9.1-9.3,0-13.9-4.2-15.5-9.9h-15.5c1.5,12.9,12.4,22.9,31,22.9,17.5,0,28.8-9.2,28.8-22.9,0-11.9-8-18.1-20.8-19.3ZM479.3,93.7h14.9V0h-14.9v93.7ZM380.9,33.2h-2.1v-8h-14.9v68.5h14.9v-35.8c0-12.2,5.6-19.3,16.8-19.3h9.4v-15.1h-5.5c-10.3,0-14.7,3.9-18.6,9.7Z"/>
</svg>