<?xml version="1.0" encoding="UTF-8"?>
<svg id="Group_1280" xmlns="http://www.w3.org/2000/svg" viewBox="0 0 267.5 65.25">
  <path id="Path_2525" d="M263.74,61.11c.66,0,1.21-.53,1.21-1.19,0-.03,0-.05,0-.08,0-.9-.54-1.33-1.66-1.33h-1.8v4.71h.68v-2.05h.83l.02.02,1.29,2.03h.72l-1.39-2.1h.09ZM262.96,60.64h-.79v-1.59h.99c.51,0,1.1.08,1.1.76,0,.77-.59.84-1.31.84"/>
  <path id="Path_2514" d="M0,9.59h9.99v36.4h18.5v9.22H0V9.59Z"/>
  <path id="Path_2515" d="M32.91,24.28h9.6v30.92h-9.6v-30.92ZM37.71,8.91c3.08,0,5.57,2.49,5.57,5.57s-2.49,5.57-5.57,5.57c-3.08,0-5.57-2.49-5.57-5.57s2.49-5.57,5.57-5.57h0"/>
  <path id="Path_2516" d="M82.67,9.58h9.6v27.26l10.88-12.58h11.77l-12.6,14.31,12.34,16.63h-12.07l-10.19-15.28h-.13v15.28h-9.6V9.58Z"/>
  <path id="Path_2517" d="M47.83,24.28h9.22v4.23h.13c1.88-3.21,5.37-5.13,9.09-4.99,9.73,0,11.53,6.4,11.53,14.73v16.95h-9.6v-15.03c0-3.59-.07-8.2-5-8.2s-5.76,3.91-5.76,7.94v15.29h-9.6v-30.91Z"/>
  <path id="Path_2518" d="M135.14,36.14c.07-3.18-2.44-5.82-5.62-5.89-.09,0-.18,0-.28,0-3.49-.22-6.51,2.4-6.78,5.89h12.68ZM143.27,49.84c-3.23,3.92-8.05,6.18-13.13,6.15-9.6,0-17.29-6.41-17.29-16.33s7.68-16.33,17.29-16.33c8.97,0,14.6,6.4,14.6,16.33v3.01h-22.28c.57,3.53,3.66,6.1,7.23,6.02,2.78-.02,5.35-1.44,6.85-3.78l6.72,4.93Z"/>
  <path id="Path_2519" d="M164.75,31.75c-4.8,0-7.68,3.21-7.68,7.88s2.88,7.88,7.68,7.88,7.69-3.2,7.69-7.88-2.88-7.88-7.69-7.88M181.28,55.19h-8.84v-4.1h-.13c-2.25,3.02-5.78,4.82-9.54,4.87-9.22,0-15.3-6.66-15.3-16.07,0-8.65,5.38-16.58,14.22-16.58,3.97,0,7.68,1.09,9.86,4.1h.13V9.58h9.61v45.61Z"/>
  <path id="Path_2520" d="M246.08,55.2h-9.6v-15.03c0-3.58-.06-8.2-4.99-8.2s-5.77,3.91-5.77,7.94v15.29h-9.6v-30.92h9.22v4.22h.13c1.88-3.21,5.37-5.13,9.09-4.99,9.73,0,11.52,6.4,11.52,14.73v16.96ZM205.29,20.06c-3.08,0-5.57-2.49-5.57-5.57s2.49-5.57,5.57-5.57c3.08,0,5.57,2.49,5.57,5.57s-2.49,5.57-5.57,5.57h0M210.09,55.2h-9.61v-30.92h9.61v30.92ZM250.87,0h-55.21c-2.61-.03-4.75,2.06-4.78,4.67v55.44c.03,2.61,2.17,4.7,4.78,4.68h55.21c2.62.03,4.76-2.06,4.8-4.68V4.67c-.04-2.61-2.19-4.7-4.8-4.67"/>
  <path id="Path_2526" d="M263.04,56.41c-2.44.02-4.4,2.02-4.38,4.46.02,2.44,2.02,4.4,4.46,4.38,2.44-.02,4.4-2.02,4.38-4.46-.02-2.41-1.97-4.35-4.38-4.38h-.08M263.04,64.74c-2.14.04-3.9-1.67-3.94-3.81s1.67-3.9,3.81-3.94c2.14-.04,3.9,1.67,3.94,3.81v.07c.04,2.09-1.62,3.83-3.71,3.87h-.1"/>
</svg>