<?xml version="1.0" encoding="UTF-8"?>
<svg id="Layer_1" xmlns="http://www.w3.org/2000/svg" viewBox="0 0 329.12 81">
  <path d="M234.72,31.5c-4.8,0-8.3,1.7-10,4.8l-.9,1.7v-5.7h-7.9v34.5h8.3v-20.5c0-4.9,2.7-7.7,7.3-7.7s7,2.7,7,7.5v20.7h8.3v-22.2c0-8.2-4.5-13.1-12.1-13.1ZM194.52,31.5c-9.8,0-15.8,6.1-15.8,15.9v4.8c0,9.5,6.1,15.3,16,15.3,6.6,0,11.2-2.4,14.1-7.4l-5.1-3c-2.2,2.9-5.6,4.6-9,4.6-5,0-8-3.1-8-8.3v-1.4h23.1v-5.7c0-8.9-6-14.8-15.3-14.8h0ZM202.32,46.7h-15.6v-.8c0-5.7,2.8-8.8,7.8-8.8s7.8,3.1,7.8,8.3v1.3ZM329.12,26.7v-6.6h-28.7v6.6h10.1v33.5h-10.1v6.6h28.7v-6.6h-10.1V26.7h10.1ZM111.62,19.1c-12.8,0-20.8,8-20.8,20.8v7c0,12.9,8,20.8,20.8,20.8s20.8-8,20.8-20.8v-7c0-12.8-8-20.8-20.8-20.8ZM123.82,47.4c0,8.5-4.4,13.4-12.2,13.4s-12.2-4.8-12.2-13.4v-7.9c0-8.5,4.5-13.4,12.2-13.4s12.2,4.9,12.2,13.4v7.9ZM158.52,31.5c-4.4,0-8.1,1.8-10.1,4.8l-.9,1.4v-5.4h-7.9v46.3h8.3v-16.7l.9,1.3c1.9,2.8,5.5,4.4,9.8,4.4,7.2,0,14.4-4.7,14.4-15.1v-5.9c-.1-7.5-4.6-15.1-14.5-15.1h0ZM164.62,52.1c0,5.6-3.2,9-8.5,9-4.9,0-8.3-3.6-8.3-8.9v-5.2c0-5.3,3.4-9,8.3-9,5.2,0,8.4,3.4,8.4,9l.1,5.1ZM269.72,20.1l-16.7,46.7h8.4l3.2-10h19.2v.1l3.2,9.9h8.4l-16.8-46.7h-8.9ZM266.72,50.2l7.6-23.6,7.5,23.6h-15.1Z"/>
  <path d="M74.62,33.1c1.8-5.5,1.2-11.6-1.7-16.6-4.4-7.7-13.3-11.6-22-9.8-3.8-4.3-9.4-6.7-15.2-6.7-8.9,0-16.7,5.7-19.5,14.1-5.7,1.2-10.6,4.7-13.5,9.8-4.4,7.7-3.4,17.3,2.5,23.9-1.8,5.6-1.1,11.6,1.8,16.6,4.4,7.7,13.3,11.7,22,9.8,3.9,4.3,9.4,6.8,15.2,6.8,8.9,0,16.7-5.7,19.5-14.1,5.7-1.2,10.6-4.7,13.5-9.8,4.4-7.7,3.4-17.4-2.6-24ZM44.22,75.7c-3.6,0-7-1.2-9.7-3.5.1-.1.4-.2.5-.3l16.1-9.3c.8-.5,1.3-1.3,1.3-2.3v-22.7l6.8,3.9c.1,0,.1.1.1.2v18.8c.1,8.4-6.7,15.2-15.1,15.2ZM11.62,61.8c-1.8-3.1-2.4-6.7-1.8-10.2.1.1.3.2.5.3l16.1,9.3c.8.5,1.8.5,2.6,0l19.7-11.4v7.9c0,.1,0,.2-.1.2l-16.3,9.4c-7.2,4.2-16.5,1.7-20.7-5.5h0ZM7.42,26.6c1.8-3.1,4.6-5.4,7.9-6.7v19.2c0,.9.5,1.8,1.3,2.3l19.7,11.4-6.8,3.9c-.1,0-.2.1-.2,0l-16.3-9.4c-7.4-4.2-9.8-13.5-5.6-20.7h0ZM63.42,39.6l-19.7-11.4,6.8-3.9c.1,0,.2-.1.2,0l16.3,9.4c7.3,4.2,9.7,13.5,5.5,20.7-1.8,3.1-4.6,5.4-7.9,6.6v-19.1c.1-.9-.4-1.8-1.2-2.3h0ZM70.12,29.4c-.1-.1-.3-.2-.5-.3l-16.1-9.3c-.8-.5-1.8-.5-2.6,0l-19.7,11.4v-7.9c0-.1,0-.2.1-.2l16.3-9.4c7.3-4.2,16.5-1.7,20.7,5.6,1.8,3,2.4,6.6,1.8,10.1h0ZM27.52,43.4l-6.8-3.9c-.1,0-.1-.1-.1-.2v-18.8c0-8.4,6.8-15.2,15.2-15.2,3.6,0,7,1.2,9.7,3.5-.1.1-.3.2-.5.3l-16.1,9.3c-.8.5-1.3,1.3-1.3,2.3v22.7h-.1ZM31.22,35.4l8.8-5.1,8.8,5.1v10.1l-8.8,5.1-8.8-5.1v-10.1Z"/>
</svg>