<?xml version="1.0" encoding="UTF-8"?>
<svg id="Layer_1" xmlns="http://www.w3.org/2000/svg" viewBox="0 0 298.03 47.18">
  <path d="M73.14,2.69c7.89,14.22,6.41,31.79-3.74,44.49h-21.44l6.6-11.67h-8.73l10.29-18.13h8.78l8.24-14.67v-.02ZM30.8,47.18H8.94C-1.41,34.52-2.91,16.81,5.15,2.59l14.18,24.63L34.96,0h23l-27.15,47.16h0v.02Z" style="fill-rule: evenodd;"/>
  <path d="M91.21,25.28c0-12.59,6.27-18.64,16.57-18.64s16.56,6.05,16.56,18.64-6.31,18.57-16.56,18.57-16.57-6.1-16.57-18.57ZM94.93,25.28c0,10.35,4.72,15.28,12.85,15.28s12.84-4.93,12.84-15.28-4.72-15.35-12.84-15.35-12.85,4.94-12.85,15.35Z"/>
  <path d="M151.41,8.13c.27-.7.95-1.17,1.7-1.17.99,0,1.79.79,1.8,1.78,0,.01,0,.02,0,.03,0,.27-.06.54-.16.79l-12.42,32.75c-.3.94-1.3,1.45-2.24,1.15-.55-.18-.98-.6-1.15-1.15l-12.42-32.75c-.1-.25-.15-.52-.16-.79-.01-.99.78-1.8,1.77-1.81.01,0,.02,0,.03,0,.75,0,1.43.47,1.7,1.17l10.77,28.56,10.78-28.56Z"/>
  <path d="M162.45,26.44v15.29c.07,1-.67,1.87-1.67,1.94s-1.87-.67-1.94-1.67c0-.09,0-.18,0-.27V8.73c-.07-1,.67-1.87,1.67-1.94s1.87.67,1.94,1.67c0,.09,0,.18,0,.27v14.42h18.48v-14.38c-.07-1,.67-1.87,1.67-1.94s1.87.67,1.94,1.67c0,.09,0,.18,0,.27v33c.07,1-.67,1.87-1.67,1.94s-1.87-.67-1.94-1.67c0-.09,0-.18,0-.27v-15.33h-18.48Z"/>
  <path d="M201.58,18.27c3.15-.14,6.18,1.22,8.17,3.66.24.28.37.63.37,1,.02.83-.65,1.52-1.48,1.54-.02,0-.04,0-.06,0-.5,0-.97-.23-1.27-.64-1.4-1.7-3.54-2.61-5.73-2.45-4.89,0-7.49,3.13-7.49,9.66s2.6,9.71,7.49,9.71c2.25-.02,4.43-.83,6.15-2.28.28-.24.63-.37,1-.37.85,0,1.54.69,1.54,1.54,0,.53-.26,1.02-.69,1.32-2.23,1.9-5.07,2.92-8,2.87-6.85,0-10.94-4.09-10.94-12.79s4.09-12.77,10.94-12.77Z"/>
  <path d="M218.51,7.01v30.37c0,2.12.69,3,2.12,3,.88-.07,1.65.59,1.72,1.47.07.88-.59,1.65-1.47,1.72-.08,0-.17,0-.25,0-3.55,0-5.52-2.13-5.52-6.21V7.01c.03-.93.77-1.67,1.7-1.69.93,0,1.69.76,1.7,1.69Z"/>
  <path d="M247.44,31.01c0,8.7-4.25,12.79-11.15,12.79s-11.14-4.09-11.14-12.79,4.3-12.74,11.14-12.74,11.15,4.03,11.15,12.74ZM243.99,31.01c0-6.69-2.81-9.66-7.7-9.66s-7.69,3-7.69,9.66,2.81,9.71,7.69,9.71,7.74-2.92,7.74-9.71h-.04Z"/>
  <path d="M255.62,20.29v13.85c0,3.45,1.11,6.42,6.47,6.42s6.48-3,6.48-6.42v-13.85c.01-.95.79-1.71,1.74-1.7,0,0,0,0,.01,0,.92.01,1.66.77,1.65,1.69,0,0,0,0,0,.01v13.85c0,5-1.65,9.66-9.88,9.66s-9.87-4.62-9.87-9.66v-13.85c-.02-.92.72-1.68,1.64-1.7.02,0,.04,0,.06,0,.94,0,1.69.76,1.7,1.7Z"/>
  <path d="M294.63,21.72V7.01c0-.94.76-1.7,1.7-1.7.94,0,1.69.76,1.7,1.7v26.37c0,7-4.35,10.46-10.4,10.46-6.85,0-10.89-4.09-10.89-12.79s3.83-12.74,10.67-12.74c2.81-.05,5.48,1.21,7.22,3.41ZM294.63,26.02s-2-4.67-7-4.67-7.49,3.13-7.49,9.66,2.6,9.71,7.49,9.71c4.08,0,7-2.33,7-7.38v-7.32Z"/>
</svg>