<?xml version="1.0" encoding="UTF-8"?>
<svg id="Layer_1" xmlns="http://www.w3.org/2000/svg" viewBox="0 0 496.4 125.6">
  <g>
    <path d="M158.8,98.9l6.2-14.4c6.7,5,15.6,7.6,24.4,7.6,6.5,0,10.6-2.5,10.6-6.3-.1-10.6-38.9-2.3-39.2-28.9-.1-13.5,11.9-23.9,28.9-23.9,10.1,0,20.2,2.5,27.4,8.2l-5.8,14.7c-6.6-4.2-14.8-7.2-22.6-7.2-5.3,0-8.8,2.5-8.8,5.7.1,10.4,39.2,4.7,39.6,30.1,0,13.8-11.7,23.5-28.5,23.5-12.3,0-23.6-2.9-32.2-9.1"/>
    <path d="M396.7,79.3c-3.1,5.4-8.9,9.1-15.6,9.1-9.9,0-17.9-8-17.9-17.9s8-17.9,17.9-17.9c6.7,0,12.5,3.7,15.6,9.1l17.1-9.5c-6.4-11.4-18.7-19.2-32.7-19.2-20.7,0-37.5,16.8-37.5,37.5s16.8,37.5,37.5,37.5c14.1,0,26.3-7.7,32.7-19.2l-17.1-9.5Z"/>
    <rect x="228.1" y="1.9" width="21.4" height="104.7"/>
    <polygon points="422.2 1.9 422.2 106.6 443.6 106.6 443.6 75.2 469 106.6 496.4 106.6 464.1 69.3 494 34.5 467.8 34.5 443.6 63.4 443.6 1.9 422.2 1.9"/>
    <path d="M313.1,79.5c-3.1,5.1-9.5,8.9-16.7,8.9-9.9,0-17.9-8-17.9-17.9s8-17.9,17.9-17.9c7.2,0,13.6,4,16.7,9.2v17.7ZM313.1,34.5v8.5c-3.5-5.9-12.2-10-21.3-10-18.8,0-33.6,16.6-33.6,37.4s14.8,37.6,33.6,37.6c9.1,0,17.8-4.1,21.3-10v8.5h21.4V34.5s-21.4,0-21.4,0Z"/>
  </g>
  <g>
    <g>
      <path d="M26.5,79.4c0,7.3-5.9,13.2-13.2,13.2S.1,86.7.1,79.4s5.9-13.2,13.2-13.2h13.2v13.2Z"/>
      <path d="M33.1,79.4c0-7.3,5.9-13.2,13.2-13.2s13.2,5.9,13.2,13.2v33c0,7.3-5.9,13.2-13.2,13.2s-13.2-5.9-13.2-13.2v-33Z"/>
    </g>
    <g>
      <path d="M46.3,26.4c-7.3,0-13.2-5.9-13.2-13.2S39,0,46.3,0s13.2,5.9,13.2,13.2v13.2h-13.2Z"/>
      <path d="M46.3,33.1c7.3,0,13.2,5.9,13.2,13.2s-5.9,13.2-13.2,13.2H13.2c-7.3,0-13.2-5.9-13.2-13.2s5.9-13.2,13.2-13.2h33.1Z"/>
    </g>
    <g>
      <path d="M99.2,46.3c0-7.3,5.9-13.2,13.2-13.2s13.2,5.9,13.2,13.2-5.9,13.2-13.2,13.2h-13.2v-13.2Z"/>
      <path d="M92.6,46.3c0,7.3-5.9,13.2-13.2,13.2s-13.2-5.9-13.2-13.2V13.2c0-7.3,5.9-13.2,13.2-13.2s13.2,5.9,13.2,13.2v33.1Z"/>
    </g>
    <g>
      <path d="M79.4,99.2c7.3,0,13.2,5.9,13.2,13.2s-5.9,13.2-13.2,13.2-13.2-5.9-13.2-13.2v-13.2h13.2Z"/>
      <path d="M79.4,92.6c-7.3,0-13.2-5.9-13.2-13.2s5.9-13.2,13.2-13.2h33.1c7.3,0,13.2,5.9,13.2,13.2s-5.9,13.2-13.2,13.2h-33.1Z"/>
    </g>
  </g>
</svg>