<?xml version="1.0" encoding="UTF-8"?>
<svg id="Layer_1" xmlns="http://www.w3.org/2000/svg" viewBox="0 0 311.1 63.5">
  <g id="Logos">
    <path d="M55,0H7.4C3.3,0,0,3.3,0,7.4v47.6c0,4.1,3.3,7.4,7.4,7.4h47.6c4.1,0,7.4-3.3,7.4-7.4h0V7.4c0-4.1-3.3-7.4-7.4-7.4ZM26.9,45c0,1.4-1.1,2.5-2.5,2.5h-10.4c-1.4,0-2.5-1.1-2.5-2.4V14c0-1.4,1.1-2.5,2.5-2.5h10.4c1.4,0,2.5,1.1,2.5,2.4h0v31.1ZM50.9,30.7c0,1.4-1.1,2.5-2.5,2.4h-10.4c-1.4,0-2.5-1.1-2.5-2.5V14c0-1.4,1.1-2.5,2.5-2.5h10.4c1.4,0,2.5,1.1,2.5,2.4h0v16.8Z" style="fill-rule: evenodd;"/>
    <path d="M129.3,4.6v12h-14.3v45.8h-13.8V16.6h-14.2V4.6h42.3Z"/>
    <path d="M146.9,62.4h-12.7V17.4h12.7v8.6c2.4-6.1,6.3-9.7,13.2-9.2v13.3c-8.9-.7-13.2,1.5-13.2,8.7v23.6Z"/>
    <path d="M229.7,62.7c-8.4,0-13.6-4.1-13.6-13.5V0h12.8v47.5c0,2.7,1.8,3.7,4,3.7.6,0,1.3,0,1.9-.1v11.1c-1.7.4-3.4.6-5.1.5Z"/>
    <path d="M256.4,62.7c-8.4,0-13.6-4.1-13.6-13.5V0h12.8v47.5c0,2.7,1.8,3.7,4,3.7.6,0,1.3,0,1.9-.1v11.1c-1.6.4-3.4.6-5.1.5Z"/>
    <path d="M267.7,39.9c0-13.9,8-23.4,21.8-23.4s21.6,9.5,21.6,23.4-7.9,23.6-21.6,23.6-21.8-9.8-21.8-23.6ZM280.2,39.9c0,6.8,2.8,12.2,9.3,12.2s9.1-5.4,9.1-12.2-2.8-12-9.1-12-9.3,5.2-9.3,12Z"/>
    <path d="M177.2,44c3.6.4,7.2.6,10.8.6,9.8,0,18-2.6,18-12.1s-8.5-16.1-18.7-16.1c-13.7,0-22.5,9.9-22.5,23.8s7.6,23,24.7,23c5.1,0,10.1-.9,14.9-2.7v-10.6c-4.4,1.4-9.4,2.8-14.4,2.8-6.8-.1-11.6-2.3-12.8-8.7ZM187.1,26.3c3.6,0,6.5,2.4,6.5,5.8,0,4.3-4.6,5.7-9.8,5.7-2.2,0-4.5-.2-6.7-.5.2-2.1.8-4.1,1.8-6,1.6-3.1,4.8-5,8.2-5Z"/>
  </g>
</svg>