<?xml version="1.0" encoding="UTF-8"?>
<svg id="Layer_1" xmlns="http://www.w3.org/2000/svg" viewBox="0 0 520.3 79.5">
  <path d="M223.3,73.4l-22.8-63.4c-.3-.9-.7-2-.7-3.1,0-2.7,2.3-5.4,5.7-5.4,2.9,0,4.8,1.9,5.7,4.6l18.9,54.7,19-54.8c.9-2.6,2.6-4.5,5.5-4.5h.6c3.1,0,4.9,1.9,5.8,4.5l18.9,54.8,19.2-54.9c.7-2.3,2.3-4.4,5.4-4.4s5.5,2.5,5.5,5.2c0,1-.4,2.2-.7,3.1l-22.9,63.6c-1.2,3.3-3.5,5.1-6.1,5.1h-.4c-2.9,0-5.1-1.7-6.1-5.1l-18.7-53.9-18.9,53.9c-1,3.3-3.2,5.1-6.1,5.1h-.3c-3-.1-5.4-1.8-6.5-5.1"/>
  <path d="M389.3,7.1c0-3.1,2.5-5.7,5.5-5.7,3.2,0,5.7,2.5,5.7,5.7v12.9c5.5-12.5,17.8-18.4,25.9-18.4,3.4,0,5.5,2.5,5.5,5.7s-2,5.2-5,5.7c-14.5,1.7-26.5,12.7-26.5,34.3v25.5c0,3.1-2.3,5.7-5.5,5.7s-5.7-2.5-5.7-5.7l.1-65.7h0Z"/>
  <path d="M468,79.2c-20.2,0-36.7-15.7-36.7-38.7v-.3c0-21.4,15-38.7,35.3-38.7,21.8,0,34.2,18,34.2,37.7,0,3-2.4,5.2-5.1,5.2h-53.2c1.6,16.1,12.8,25.2,25.9,25.2,9.1,0,15.8-3.6,21.2-8.6.9-.7,1.9-1.3,3.1-1.3,2.7,0,4.8,2.2,4.8,4.8,0,1.3-.6,2.6-1.7,3.6-7,6.7-15.2,11.1-27.8,11.1M489.8,36.2c-1.1-13.5-8.8-25.3-23.5-25.3-12.8,0-22.5,10.8-23.9,25.3h47.4Z"/>
  <path d="M310.3,56v-.3c0-15.8,13-24.2,32-24.2,9.6,0,16.4,1.3,23.1,3.2v-2.6c0-13.5-8.3-20.4-22.3-20.4-7.5,0-11.9,1-17.4,3.4-.7.3-1.4.4-2,.4-2.6,0-4.9-2.2-4.9-4.8,0-2.3,1-3.7,3.1-4.6,7.4-3.2,12.9-4.3,22.5-4.3,10.6,0,18.7,2.7,24.2,8.3,5.1,5.1,7.7,12.3,7.7,21.9v41.4c0,3.2-2.3,5.5-5.4,5.5s-5.3-2.3-5.3-5.2v-7.1c-5.2,6.8-13.9,12.9-27.1,12.9-14.1-.1-28.2-8.1-28.2-23.5M365.5,50.2v-7.2c-5.5-1.6-12.9-3.2-22-3.2-14,0-21.9,6.1-21.9,15.5v.3c0,9.4,8.7,14.9,18.8,14.9,13.8,0,25.1-8.4,25.1-20.3"/>
  <path d="M20.5,6.4C18,1,12-1.4,6.3,1.1S-1.5,9.9,1.1,15.3l23.8,51.7c3.7,8.1,7.7,12.3,15.1,12.3,7.9,0,11.4-4.6,15.1-12.3,0,0,20.7-45.2,21-45.7.2-.5.9-1.9,3-1.9,1.8,0,3.3,1.4,3.3,3.3v44.2c0,6.8,3.8,12.4,11,12.4s11.2-5.6,11.2-12.4V30.7c0-7,5-11.5,11.8-11.5s11.3,4.7,11.3,11.5v36.2c0,6.8,3.8,12.4,11,12.4s11.2-5.6,11.2-12.4V30.7c0-7,5-11.5,11.8-11.5s11.3,4.7,11.3,11.5v36.2c0,6.8,3.8,12.4,11,12.4s11.2-5.6,11.2-12.4V25.7c0-15.1-12.2-25.7-26.8-25.7s-23.8,10.1-23.8,10.1c-4.9-6.3-11.6-10.1-22.9-10.1-12,0-22.5,10.1-22.5,10.1-4.9-6.3-13.2-10.1-20-10.1-10.6,0-19,4.7-24.2,16.4l-15.2,35.8L20.5,6.4Z"/>
  <path d="M501.7,11h0c0-5.1,4.1-9.4,9.3-9.4s9.3,4.2,9.3,9.3h0c0,5.1-4.1,9.3-9.3,9.3s-9.3-4.2-9.3-9.2M518.4,10.9h0c0-4.2-3.2-7.6-7.5-7.6s-7.5,3.5-7.5,7.6h0c0,4.1,3.2,7.6,7.5,7.6s7.5-3.5,7.5-7.6"/>
  <path d="M507.5,7.1c0-.6.4-1,1-1h3.1c1.2,0,2.1.3,2.6.9.5.5.8,1.2.8,2h0c0,1.4-.7,2.3-1.8,2.7l1.4,1.7c.2.2.3.5.3.8,0,.5-.5.9-.9.9s-.7-.2-1-.5l-1.9-2.4h-1.6v2c0,.6-.4,1-1,1s-1-.4-1-1v-7.1h0ZM511.5,10.5c1,0,1.5-.5,1.5-1.3h0c0-.8-.6-1.3-1.5-1.3h-2v2.6h2Z"/>
</svg>