<?xml version="1.0" encoding="UTF-8"?>
<svg id="Calque_1" xmlns="http://www.w3.org/2000/svg" viewBox="0 0 500 135.49">
  <path d="M117.41,92.84l-.07-.22,44.46-40.7v-19.61h-71.32v19.61h42.6l.07.19-44.02,40.73v19.61h73.39v-19.61h-45.1Z"/>
  <path d="M206.3,30.44c-8.23,0-14.93,1.24-20.12,3.72-4.83,2.16-8.89,5.73-11.67,10.23-2.66,4.53-4.33,9.57-4.9,14.8l21.64,3.04c.78-4.61,2.35-7.88,4.7-9.81,2.67-2.01,5.96-3.03,9.3-2.88,4.39,0,7.58,1.17,9.56,3.52,1.96,2.35,2.96,5.6,2.96,9.89v2.14h-20.81c-10.59,0-18.2,2.35-22.83,7.05-4.63,4.7-6.94,10.9-6.93,18.6,0,7.89,2.31,13.76,6.93,17.61,4.62,3.85,10.43,5.77,17.43,5.74,8.68,0,15.36-2.99,20.03-8.96,2.76-3.67,4.73-7.87,5.79-12.34h.79l2.98,19.61h19.61v-49.66c0-10.26-2.71-18.21-8.11-23.85-5.41-5.64-14.19-8.45-26.35-8.45ZM213.15,91.66c-3.11,2.6-7.19,3.89-12.26,3.89-4.18,0-7.09-.73-8.71-2.2-.79-.69-1.43-1.55-1.85-2.52-.42-.96-.63-2.01-.6-3.06-.05-.99.11-1.98.46-2.92.35-.93.88-1.78,1.57-2.5.74-.7,1.62-1.24,2.58-1.59.96-.35,1.98-.5,3-.44h20.47v1.35c.04,1.91-.36,3.8-1.16,5.53-.81,1.73-2,3.25-3.49,4.45Z"/>
  <path d="M359.33,32.31h-23.17v80.15h23.17V32.31Z"/>
  <path d="M496.11,32.31c-6.54,0-11.7,2.31-15.48,6.93-2.71,3.32-4.77,8.22-6.18,14.71h-.68l-3.03-21.64h-19.79v80.14h23.17v-41.1c0-5.18,1.21-9.16,3.64-11.92,2.43-2.76,6.9-4.15,13.43-4.15h8.8v-22.98h-3.89Z"/>
  <path d="M427.99,34.93c-5.41-3.22-12.23-4.82-20.47-4.81-12.96,0-23.11,3.69-30.44,11.07-7.33,7.38-10.99,17.56-10.99,30.53-.19,7.84,1.53,15.61,4.99,22.65,3.17,6.27,8.11,11.48,14.21,14.97,6.14,3.55,13.44,5.32,21.9,5.33,7.32,0,13.43-1.13,18.34-3.38,4.62-2.03,8.63-5.2,11.67-9.22,2.89-3.95,5.04-8.39,6.34-13.1l-19.96-5.59c-.84,3.07-2.46,5.87-4.7,8.13-2.26,2.25-6.03,3.38-11.33,3.38-6.3,0-11-1.8-14.09-5.41-2.24-2.61-3.65-6.33-4.27-11.16h54.66c.22-2.25.34-4.15.34-5.67v-4.99c.13-6.7-1.25-13.35-4.05-19.45-2.62-5.55-6.86-10.18-12.15-13.28ZM406.86,49.22c9.39,0,14.72,4.62,15.98,13.87h-33.23c.53-3.08,1.81-5.99,3.72-8.47,3.04-3.61,7.55-5.41,13.53-5.4Z"/>
  <path d="M347.99,0c-1.74-.06-3.48.23-5.11.86-1.63.63-3.11,1.57-4.37,2.78-1.24,1.22-2.21,2.69-2.85,4.31-.64,1.62-.94,3.35-.87,5.09-.06,1.75.24,3.49.88,5.12.64,1.63,1.61,3.11,2.85,4.35,1.24,1.24,2.72,2.21,4.35,2.85,1.63.64,3.37.94,5.12.87,1.74.07,3.47-.23,5.09-.87,1.62-.64,3.08-1.61,4.3-2.85,1.21-1.25,2.16-2.73,2.78-4.36.62-1.63.91-3.36.85-5.1.08-1.73-.2-3.46-.83-5.07-.62-1.62-1.58-3.08-2.8-4.31-1.23-1.23-2.69-2.18-4.31-2.81-1.61-.63-3.34-.91-5.07-.83h-.01Z"/>
  <path d="M300.14,30.12c-7.89,0-14.23,2.48-19.02,7.43-3.55,3.67-6.15,9.15-7.81,16.44h-.74l-3.03-21.64h-19.79v103.15h23.17v-42.48h.85c.71,2.83,1.7,5.59,2.96,8.22,1.96,4.29,5.17,7.88,9.22,10.31,4.19,2.29,8.92,3.43,13.69,3.3,9.7,0,17.09-3.78,22.16-11.33,5.07-7.55,7.61-18.09,7.61-31.62s-2.45-23.29-7.36-30.68c-4.91-7.39-12.21-11.08-21.9-11.08ZM302.49,88.19c-2.7,3.91-6.93,5.87-12.68,5.87-2.37.11-4.74-.35-6.9-1.33-2.16-.99-4.05-2.47-5.53-4.34-3-3.77-4.49-8.92-4.49-15.46v-1.53c0-6.65,1.49-11.73,4.49-15.27,2.99-3.53,7.13-5.28,12.42-5.24,5.86,0,10.11,1.86,12.76,5.58,2.65,3.72,3.98,8.9,3.98,15.56.02,6.88-1.33,12.27-4.04,16.16h-.02Z"/>
  <path d="M80.15,92.84H0v19.63h80.15v-19.63Z"/>
</svg>