<?xml version="1.0" encoding="UTF-8"?>
<svg id="Calque_1" xmlns="http://www.w3.org/2000/svg" viewBox="0 0 24 21.13">
  <path d="M3.38,11.64c-.86-.86-.86-2.93-.07-3.71.79-.79,3.26-3.22,5.06-5.02,1.8-1.8,3.38-2.06,3.86-2.06h3.67c.22,0,.55.03.92.09l-1.09,2.17c-.87-.06-1.68-.04-2.27-.04-2.44,0-2.63.56-3.04.97-.41.41-5.06,4.84-5.4,5.18-1.05,1.05.56,1.54,2.33,1.54.79,0,.9.82.71,1.58-.1.41-.37,1.43-.59,2.53h-2.14c.08-.42.16-.77.22-.95.19-.64.23-1.2-.15-1.2s-1.16-.19-2.02-1.05Z" style="fill: #f47920;"/>
  <path d="M21.7,3.5c-.24.48-.6,1.21-.99,2,.7,1.01,1.15,2.41,1.15,4.42,0,5.1-2.7,5.66-3.26,5.66h-2.14c-.45,0-.79.07-1.61.9-.82.83-1.99,1.84-2.33,2.17-.34.34-.82.56-1.69.56h-2.66c-.38,0-1.05-.19-1.05-1.76,0-.22.02-.47.05-.74h-2.11c-.06.64-.07,1.28,0,1.79.23,1.46,1.43,2.63,2.44,2.63h3.98c1.84,0,5.21-3.41,5.21-3.41,0,0,1.11.07,1.76.05,2.04-.06,5.55-1.74,5.55-7.36,0-3.31-1-5.48-2.3-6.91Z" style="fill: #f47920;"/>
  <path d="M21.42,1.72c-.2-.2-2.18-1.35-2.77-1.62-.16-.07-.3-.1-.42-.1-.31,0-.49.22-.59.42l-3.12,6.21c-1.56.45-2.71,1.89-2.71,3.6,0,1.44.81,2.68,2,3.31-.46.54-1.13,1.1-1.29,1.29-.23.26-.79.53-1.76.53h-6.39c-.03-1.18-1-2.13-2.18-2.13s-2.18.98-2.18,2.18.98,2.18,2.18,2.18c.92,0,1.7-.57,2.03-1.37h7.04c.97,0,1.54-.26,1.76-.52.21-.25,1.37-1.17,1.66-1.83.28.07.58.11.88.11,2.07,0,3.74-1.67,3.74-3.74,0-.68-.18-1.34-.53-1.92.92-1.85,1.83-3.7,2.75-5.55.27-.54.1-.83-.1-1.03Z" style="fill: #5f6060;"/>
</svg>