<?xml version="1.0" encoding="UTF-8"?>
<svg id="Layer_1" xmlns="http://www.w3.org/2000/svg" viewBox="0 0 121.48 55.31">
  <path id="path1052" d="M60.84,0c-12.59,0-23.27,8.54-26.57,20.1-2.87-6.13-9.1-10.43-16.28-10.43C8.11,9.67,0,17.78,0,27.65s8.11,17.98,17.98,17.98c7.18,0,13.41-4.3,16.28-10.44,3.31,11.57,13.98,20.11,26.57,20.11s23.12-8.41,26.51-19.85c2.93,6,9.08,10.18,16.16,10.18,9.87,0,17.98-8.12,17.98-17.98s-8.12-17.98-17.98-17.98c-7.07,0-13.23,4.18-16.16,10.17C83.95,8.41,73.33,0,60.84,0ZM60.84,10.56c9.51,0,17.1,7.59,17.1,17.1s-7.59,17.1-17.1,17.1-17.1-7.59-17.1-17.1,7.59-17.1,17.1-17.1ZM17.98,20.23c4.16,0,7.43,3.26,7.43,7.43s-3.26,7.43-7.43,7.43-7.43-3.26-7.43-7.43,3.26-7.43,7.43-7.43ZM103.5,20.23c4.16,0,7.43,3.26,7.43,7.43s-3.26,7.43-7.43,7.43-7.43-3.26-7.43-7.43,3.26-7.43,7.43-7.43Z" style="fill: #0082c9;"/>
</svg>