<?xml version="1.0" encoding="UTF-8"?>
<svg id="Ebene_1" xmlns="http://www.w3.org/2000/svg" viewBox="0 0 48.2 47.6">
  <g id="OTRS-LOGO-RGB-without-tagline">
    <g id="Group-3">
      <path id="Fill-1" d="M12.5,19.03c-1.8-.8-3.7-1.6-5.6-2.2-1.9-.6-4-1.1-6.1-1.6C.8,15.23.4,16.23,0,17.73c3.7,1,7,2.3,9.9,4,1.1.6,2.1,1.3,3.1,2,1.2-.8,2.3-1.7,3.4-2.6-1.2-.7-2.6-1.5-3.9-2.1" style="fill: #345669;"/>
    </g>
    <path id="Fill-4" d="M24.1,27.8c-.6-.7-1.2-1.3-1.8-2-.7-.7-1.5-1.4-2.3-2.1-1.1.9-2.3,1.8-3.5,2.6.9.8,1.8,1.6,2.7,2.5.8.8,1.6,1.6,2.3,2.4.2-.4.5-.7.7-1.1.6-.7,1.3-1.5,1.9-2.3" style="fill: #345669;"/>
    <path id="Fill-5" d="M26.2,37.8c1.7,2.9,3,6.1,3.9,9.7,1.4-.3,2.5-.8,2.5-.8-.6-4.1-1.8-7.9-3.6-11.5-.7-1.4-1.5-2.7-2.3-3.9-1,1.1-1.8,2.2-2.7,3.4.9,1,1.6,2,2.2,3.1" style="fill: #345669;"/>
    <path id="Fill-6" d="M38.3,25.8c-1.1-.6-2.1-1.3-3.2-2-1.2.8-2.3,1.7-3.4,2.6,1.3.8,2.6,1.5,4,2.2,1.8.8,3.6,1.5,5.6,2.1,1.9.6,4,1.1,6.1,1.6,0,0,.3-.7.8-2.6-3.7-1-7-2.3-9.9-3.9" style="fill: #75c0d0;"/>
    <path id="Fill-7" d="M24.1,19.8c.6.7,1.2,1.3,1.9,2,.7.7,1.5,1.4,2.2,2,1.1-.9,2.3-1.8,3.5-2.6-.9-.8-1.8-1.6-2.7-2.4-.8-.8-1.6-1.6-2.3-2.5-.2.4-.5.7-.7,1.1-.6.7-1.2,1.6-1.9,2.4" style="fill: #75c0d0;"/>
    <path id="Fill-8" d="M22,9.7c-1.7-2.8-3-6.1-3.9-9.7-1.2.3-2.6.8-2.6.8.6,4.1,1.8,7.9,3.6,11.5.7,1.4,1.5,2.7,2.3,3.9,1-1.1,1.8-2.2,2.7-3.3-.8-1-1.5-2.1-2.1-3.2" style="fill: #75c0d0;"/>
    <path id="Fill-9" d="M38.4,21.7c2.9-1.7,6.2-2.9,9.8-3.9-.5-1.8-.8-2.5-.8-2.5-4.1.6-8,1.7-11.7,3.6-1.4.7-2.7,1.5-4,2.3,1.1.9,2.2,1.8,3.4,2.6,1.1-.8,2.2-1.5,3.3-2.1" style="fill: #b93247;"/>
    <path id="Fill-10" d="M28.2,23.8c-.7.6-1.3,1.2-2,1.8-.7.7-1.4,1.5-2.1,2.2,1,1.1,1.8,2.3,2.7,3.5.8-.9,1.6-1.8,2.5-2.7.8-.8,1.6-1.5,2.5-2.3-.4-.2-.7-.5-1.1-.7-.9-.5-1.7-1.2-2.5-1.8" style="fill: #b93247;"/>
    <path id="Fill-11" d="M19.3,35.3c-.8,1.8-1.6,3.6-2.2,5.5s-1.1,3.9-1.6,6c0,0,1.3.5,2.6.8,1-3.6,2.3-6.9,4-9.8.6-1.1,1.3-2.1,2-3.1-.8-1.1-1.7-2.2-2.6-3.3-.8,1.2-1.6,2.5-2.2,3.9" style="fill: #b93247;"/>
    <path id="Fill-12" d="M22.2,30.2c-.3.4-.5.7-.7,1.1.9,1.1,1.8,2.2,2.6,3.3.8-1.1,1.7-2.3,2.7-3.4-.8-1.2-1.7-2.4-2.7-3.5-.6.9-1.3,1.7-1.9,2.5" style="fill: #2a1c23;"/>
    <g id="Group-16">
      <path id="Fill-13" d="M31.7,21.15c-1.2.8-2.4,1.7-3.5,2.6.8.7,1.6,1.3,2.5,1.9.3.2.7.5,1.1.7,1.1-.9,2.2-1.8,3.4-2.6-1.2-.8-2.4-1.7-3.5-2.6" style="fill: #522d3f;"/>
      <path id="Fill-15" d="M9.8,25.85c-2.8,1.6-6.1,2.9-9.8,3.8.3,1.3.8,2.5.8,2.5,4.2-.5,8.1-1.7,11.7-3.5,1.4-.7,2.7-1.4,4-2.3-1.1-.9-2.2-1.8-3.4-2.6-1.1.8-2.2,1.5-3.3,2.1" style="fill: #95615b;"/>
    </g>
    <path id="Fill-17" d="M28.9,12.3c.8-1.7,1.6-3.6,2.2-5.5.6-1.9,1.1-3.9,1.6-6C32.7.8,31.3.3,30.1,0c-1,3.6-2.3,6.9-4,9.7-.6,1.1-1.3,2.1-2,3.2.8,1.1,1.7,2.2,2.6,3.3.9-1.2,1.6-2.6,2.2-3.9" style="fill: #95615b;"/>
    <path id="Fill-18" d="M20,23.8c.7-.6,1.4-1.2,2-1.8.7-.7,1.4-1.4,2-2.2-1-1.1-1.8-2.3-2.7-3.5-.8.9-1.6,1.8-2.5,2.6-.8.8-1.7,1.6-2.5,2.3.4.2.8.5,1.2.8.9.5,1.7,1.1,2.5,1.8" style="fill: #95615b;"/>
    <path id="Fill-19" d="M17.6,21.9c-.4-.3-.8-.5-1.2-.8-1.1.9-2.2,1.8-3.4,2.6,1.2.8,2.3,1.7,3.4,2.6,1.3-.8,2.4-1.7,3.5-2.6-.7-.6-1.5-1.2-2.3-1.8" style="fill: #242528;"/>
    <path id="Fill-20" d="M26,17.3c.2-.4.5-.7.7-1.1-.9-1.1-1.8-2.2-2.6-3.3-.8,1.1-1.7,2.3-2.7,3.3.8,1.2,1.7,2.4,2.7,3.5.7-.7,1.3-1.6,1.9-2.4" style="fill: #3f484b;"/>
  </g>
</svg>