<?xml version="1.0" encoding="UTF-8"?>
<svg id="Calque_1" xmlns="http://www.w3.org/2000/svg" viewBox="0 0 319.1 383.61">
  <path d="M298.55,50.8C263.55-.2,192.55-15.2,141.55,16.8l-89,57c-24.32,15.54-41.01,40.57-46,69-4.39,23.47-.87,47.74,10,69-7.61,11.84-12.72,25.11-15,39-4.9,28.77,1.94,58.31,19,82,35,51,106,66,157,34l89-57c24.32-15.54,41.01-40.57,46-69,4.39-23.47.87-47.74-10-69,7.61-11.84,12.72-25.11,15-39,4.9-28.77-1.94-58.31-19-82" style="fill: #ff3e00;"/>
  <path d="M133.55,337.8c-29.01,7.91-59.85-3.3-77-28-10.24-14.51-14.21-32.53-11-50,.49-2.71,1.16-5.38,2-8l2-5,5,3c10.62,7.61,22.45,13.36,35,17l3,1v4c-.52,4.55.54,9.14,3,13,4.91,7.67,14.19,11.3,23,9,2.15-.66,4.18-1.67,6-3l89-57c4.14-2.79,7.01-7.1,8-12,1.03-5.2-.05-10.6-3-15-4.91-7.67-14.19-11.3-23-9-1.8.75-3.49,1.76-5,3l-34,21c-5.87,3.66-12.28,6.36-19,8-28.69,7.45-59-3.72-76-28-10.24-14.51-14.21-32.53-11-50,3.21-16.97,13.36-31.83,28-41l89-57c5.56-3.57,11.63-6.26,18-8,29.01-7.91,59.85,3.3,77,28,10.24,14.51,14.21,32.53,11,50-.49,2.71-1.16,5.38-2,8l-2,5-5-3c-10.62-7.61-22.45-13.36-35-17l-3-1v-4c.52-4.55-.54-9.14-3-13-4.91-7.67-14.19-11.3-23-9-2.15.66-4.18,1.67-6,3l-89,57c-4.14,2.79-7.01,7.1-8,12-1.03,5.2.05,10.6,3,15,4.91,7.67,14.19,11.3,23,9,1.8-.75,3.49-1.76,5-3l34-21c5.87-3.66,12.28-6.36,19-8,28.69-7.45,59,3.72,76,28,10.24,14.51,14.21,32.53,11,50-3.21,16.97-13.36,31.83-28,41l-89,57c-5.56,3.57-11.63,6.26-18,8" style="fill: #fff;"/>
</svg>