<?xml version="1.0" encoding="UTF-8"?>
<svg id="Layer_1" xmlns="http://www.w3.org/2000/svg" viewBox="0 0 49.8 49.75">
  <path d="M37.16,30.06l-5.28-5.28-.09.09-12.06,12.06-.09.09c-2.92,2.92-2.92,7.64,0,10.56h0c2.92,2.92,7.64,2.92,10.56,0l6.87-6.87h0l.09-.09c2.92-2.9,2.92-7.64,0-10.56Z" style="fill: #21b7b3;"/>
  <path d="M47.63,19.61h0L30.21,2.19c-2.92-2.92-7.64-2.92-10.56,0h0c-2.92,2.92-2.92,7.64,0,10.56l17.42,17.42c2.92,2.92,2.92,7.64,0,10.56l10.56-10.56h0c2.9-2.92,2.9-7.64,0-10.56Z" style="fill: #112033;"/>
  <circle cx="7.38" cy="24.89" r="7.38" style="fill: #fdce0d;"/>
</svg>