<?xml version="1.0" encoding="utf-8"?>
<!-- Generator: Adobe Illustrator 25.3.1, SVG Export Plug-In . SVG Version: 6.00 Build 0)  -->
<svg version="1.2" baseProfile="tiny" id="Calque_1"
	 xmlns="http://www.w3.org/2000/svg" xmlns:xlink="http://www.w3.org/1999/xlink" x="0px" y="0px" viewBox="0 0 415 198"
	 overflow="visible" xml:space="preserve">
<polygon points="87.2,59.7 72.8,117.3 70.2,129.6 67.3,117.8 50.3,59.7 44.3,59.7 27.1,117.8 24.1,129.5 21.6,117.3 7.2,59.7 
	0.3,59.7 20.5,138.6 27,138.6 45.4,76.9 47.3,69.1 49.3,76.9 67.3,138.6 73.7,138.6 94,59.7 "/>
<rect x="107.3" y="59.7" width="6.7" height="78.9"/>
<polygon points="186.7,59.7 186.7,127.2 141.1,59.7 134.4,59.7 134.4,138.6 141.1,138.6 141.1,71.1 186.7,138.6 193.4,138.6 
	193.4,59.7 "/>
<g>
	<path fill="none" d="M233.7,125.5c6.4,0,11.3-2.1,14.6-6.2c3.4-4.2,5.1-10.1,5.2-17.8v-4.2c0-8-1.7-14.1-5-18.2
		c-3.3-4.1-8.2-6.2-14.6-6.2h-8.1v52.7H233.7z"/>
	<path fill="none" d="M404.3,126.8c-2.9,0-5.2,2.3-5.2,5.3c0,3.1,2.3,5.4,5.2,5.4c2.9,0,5.2-2.3,5.2-5.4
		C409.4,129.1,407.2,126.8,404.3,126.8z M406.1,135.9l-1.9-3.2h-1.3v3.2h-1.1v-7.4h2.8c1.7,0,2.6,0.6,2.6,2.1c0,1.3-0.8,1.9-1.9,2
		l2.1,3.3H406.1z"/>
	<path fill="none" d="M406,130.5c0-0.9-0.8-1.1-1.6-1.1h-1.5v2.3h1.3C405.2,131.7,406,131.6,406,130.5z"/>
	<path d="M209.4,138.6H234c6.9,0,13.1-1.6,18.7-4.8c5.5-3.1,9.8-7.6,12.8-13.3c3-5.7,4.5-12.2,4.5-19.6v-3.6
		c0-7.3-1.5-13.9-4.6-19.6c-3.1-5.8-7.4-10.2-12.9-13.3c-5.5-3.1-11.7-4.7-18.7-4.7h-24.4V138.6z M233.8,72.8
		c6.4,0,11.3,2.1,14.6,6.2c3.3,4.1,5,10.2,5,18.2v4.2c-0.1,7.7-1.8,13.7-5.2,17.8c-3.4,4.2-8.3,6.2-14.6,6.2h-7.9V72.8H233.8z"/>
	<polygon points="335,125.5 298.2,125.5 298.2,104.4 329.6,104.4 329.6,91.6 298.2,91.6 298.2,72.8 334.9,72.8 334.9,59.7 
		281.9,59.7 281.9,138.6 335,138.6 	"/>
	<polygon points="414.5,59.7 396.3,59.7 378.3,119 360.5,59.7 342.3,59.7 369.8,138.6 386.9,138.6 414.5,59.7 	"/>
	<path d="M404.3,125.7c-3.5,0-6.5,2.7-6.5,6.4c0,3.7,3,6.4,6.5,6.4h0c3.5,0,6.5-2.7,6.5-6.4C410.7,128.5,407.8,125.7,404.3,125.7z
		 M404.3,137.5c-2.9,0-5.2-2.3-5.2-5.4c0-3,2.3-5.3,5.2-5.3c2.9,0,5.2,2.3,5.2,5.3C409.4,135.2,407.2,137.5,404.3,137.5z"/>
	<path d="M407.2,130.6c0-1.5-0.9-2.1-2.6-2.1h-2.8v7.4h1.1v-3.2h1.3l1.9,3.2h1.3l-2.1-3.3C406.4,132.5,407.2,131.9,407.2,130.6z
		 M402.9,131.7v-2.3h1.5c0.8,0,1.6,0.2,1.6,1.1c0,1.1-0.9,1.2-1.8,1.2H402.9z"/>
</g>
</svg>
