<?xml version="1.0" encoding="UTF-8"?>
<svg id="Calque_1" xmlns="http://www.w3.org/2000/svg" viewBox="0 0 304.71 301.31">
  <path d="M174.54,175.19c2.37-9.6-3.49-19.26-13.04-21.64-9.55-2.38-19.17,3.5-21.55,13.1-5.79,23.6-27.33,40.13-52.3,40.13s-46.51-16.39-52.58-39.85c-2.51-9.6-12.2-15.34-21.76-12.82-9.48,2.52-15.2,12.26-12.76,21.85,10.18,39.22,46.02,66.61,87.09,66.61s77.12-27.67,86.81-67.31l.07-.07Z" vector-effect="non-scaling-stroke" style="fill: #5386ff;"/>
  <path d="M223.84,153.95c-9.76-1.4-18.76,5.46-20.08,15.27-3.42,24.38-14.64,46.58-32.49,64.09-18.48,18.21-41.91,29.42-67.78,32.36-9.76,1.12-16.8,10.02-15.69,19.82,1.05,9.11,8.72,15.83,17.64,15.83.7,0,1.39,0,2.02-.14,33.82-3.92,64.43-18.56,88.62-42.37,23.57-23.11,38.35-52.46,42.81-84.75,1.4-9.81-5.44-18.84-15.2-20.17l.14.07Z" vector-effect="non-scaling-stroke" style="fill: #5386ff;"/>
  <path d="M187.08,0c-64.85,0-117.63,52.04-117.63,116.06v28.37c0,9.88,7.95,17.86,17.78,17.86s17.78-7.98,17.78-17.86v-28.37c0-44.27,36.82-80.27,82-80.27s82.07,36,82.07,80.27v37.68c0,41.32-14.85,81.46-41.84,113.05-6.41,7.49-5.51,18.77,1.95,25.22,3.35,2.87,7.46,4.34,11.57,4.34,5.02,0,9.97-2.1,13.53-6.23,32.49-38.1,50.41-86.5,50.41-136.3v-37.68c.07-64.09-52.72-116.13-117.63-116.13Z" vector-effect="non-scaling-stroke" style="fill: #5386ff;"/>
</svg>